<svg id="Capa_1" data-name="Capa 1" xmlns="http://www.w3.org/2000/svg" viewBox="0 0 119.46 88.76"><defs><style>.cls-1{fill:#29235c;}</style></defs><path class="cls-1" d="M157,89.81c-7.3,4-14.82,9.67-23.18,12.43C104.41,111.94,75.4,83.49,82.14,52c2.67-12.49,12.53-17.12,22.58-19.76,27.19-7.14,51.45,13.49,51.89,43.38,0,1.25.13,2.5.26,5.09l10.67-9-6.12-4.15c9.91.5,10.17-7,12.77-13.07l-21.05-3.92c2.91-1.83,4.45-3.07,6.18-3.78,1.25-.51,2.76-.25,4.15-.41,8.36-1,17.7.54,22-10.44.57-1.45,3-2.09,4.51-3.1l1.75,1c-.84,3.08-1.08,6.58-2.66,9.15-2.56,4.17-3,7.84-.92,12.33a89.75,89.75,0,0,1,4.53,13c.6,2.12.34,4.5.47,6.77l-1.39.46-11.6-17c-3.83,5-10.67,8.11-5.38,17.7l-4.35-2.45c-5.55,8.71-10.46,17.71-16.55,25.69-13.55,17.75-35.53,24.54-53.4,17.34C81.83,109.19,70.83,88.51,74.4,66.46c5.87,25.37,18.63,43.15,43.79,45.19C135.06,113,148.18,103.9,157,89.81Zm-9.71.86c-34.9,4.6-43.7-.4-60.81-35.56.72,16.61,6.88,29.13,19.83,36.88C120,100.18,133.91,99.19,147.31,90.67ZM109.1,55.16c-12.16,5.28-13.08,9.89-3.68,19,2.28,2.2,4.9,4,8,6.49l5.23-13.78Zm7.72,28.14,18.23,4.43c.22-5.29.39-9.42.56-13.33L122,69.22C120.45,73.48,118.89,77.72,116.82,83.3Zm22,4.76c5.17-2.24,10.36-2.91,12.72-6,1.9-2.48.36-7.92.35-12.26-4.81,1.92-9.3,2.3-11.18,4.86S139.48,82,138.78,88.06ZM106.36,41.92c-3.33.53-6.74.88-10,1.72-1,.26-2.45,2-2.36,2.89.39,4,1.26,7.94,2.21,13.32C100.44,53.32,110.3,53.07,106.36,41.92Zm33.24,28a38.91,38.91,0,0,0,4.11-1.1c5.14-2.06,5.55-3.53,1.7-7.67-2.74-3-5.88-5.5-8.84-8.23l-.88.76Zm-15.85-4.79L134,69.4l1.25-1.11q-2.17-7.52-4.34-15l-1.49.15Zm3.13-15.89-14.59,3.47,8.2,9.59ZM113.82,38.12l13.35,4.54C122.89,34.55,119.71,33.49,113.82,38.12Zm22.49,9.55,11.95,9.69C144.35,47.83,142.22,46.06,136.31,47.67ZM121.11,46l.18-1.26-10.1-2.31c.24,2.62.39,4.23.56,6.08Z" transform="translate(-73.73 -30.8)"/></svg>