<svg id="Capa_1" data-name="Capa 1" xmlns="http://www.w3.org/2000/svg" viewBox="0 0 787.88 683.38"><defs><style>.cls-1{fill:#d8e9f4;}.cls-2{fill:#a1d2ca;}.cls-3{fill:#e8f1f7;}.cls-4{fill:#78b4bf;}.cls-5{fill:#628d97;}.cls-6{fill:#726f87;}.cls-7{fill:#6d6d7c;}.cls-8{fill:#cc7361;}.cls-9{fill:#f1ccbc;}.cls-10{fill:#f9cc9c;}.cls-11{fill:#cee8ed;}.cls-12{fill:#87c9e2;}.cls-13{fill:#e8b48e;}.cls-14{fill:#fff;}.cls-15{fill:#92a2d2;}.cls-16{fill:#e6dbd8;}</style></defs><path class="cls-1" d="M869.55,380c.26,6.69-2.7,12.63-4.65,18.74-2.33,7.28-5.76,14.19-8.13,21.45s-5.31,14-8.31,20.83a388.52,388.52,0,0,1-17.79,35.08c-8.33,14.68-17.45,28.85-27,42.75-1.08,1.58-2.2,2.91-4.12,3.32-3.15-6.56-4.06-14-7.86-20.32a5.2,5.2,0,0,0,1.83-4.91c1.36-1.12,1.24-2.54.81-4l-.78-7.15c2.67-.29,6.56,1.63,7.75-1.18,1.48-3.49,4.4-6.54,4.25-10.69,2.55-.28,2.22-2.31,2-3.8-.93-5.57,1.11-10,5-13.74,2.11-2,4.52-3.77,6.69-5.75,4.05-3.69,3.33-11.46-1-14.66-4.68-3.45-9.93-1.32-14.89-2-1.65-.22-3.72.82-4.61-1.75-1.68-4.88-6.46-6.94-9.85-10.22-2.75-2.68-13.71-.87-16.51,1.75-5.53,5.16-8.47,11.25-7.62,18.93.27,2.39-.2,4.24-3,4.81a14.77,14.77,0,0,0-10.26,7.4c-4.11,6.7-3.67,10.5,3.35,14.2,1.33.7,2.82,1.14,3,3-.63,4-3.11,7.93-1.8,12.09,2.54,8.09-.6,14-6.21,19.48-5.18,5-7.75,10.84-4.41,18.23,1.37,3,3.66,5.22,5.43,7.86a17.08,17.08,0,0,1-.76,3.84c-4.08,9.2-10.94,16.59-17.11,24.24a120.41,120.41,0,0,0-13.59,21.39c-4.36,8.64-8.35,17.9-9.46,27.87l-.07,1.91c-4.67,1.67-9.83,2.62-12,8-.41.62-.82,1.24-1.22,1.86-1.19.58-4.21-2.16-3.49,1.92-3.07.66-6.39-.82-9.33,1l-2,0c-.46-2.29-2.31-2.61-4.14-2.84-20-2.45-40.06-5.46-60.28-3.85-7.51.6-13.11-2.77-18.31-6.6-3.37-2.48-5.25-6.44-9.91-2.49-.22.18-1.34-.69-2-1.08-.12-.62-.25-1.24-.38-1.86,1.75-1.38,1.08-3.33,1.1-5.05.09-8.71.09-17.42.11-26.12,5-.95,9.19,1,13,4,2.33,1.39,4.7,2.7,7,4.16,7.63,4.84,7.62,4.86,12.76-2.24,6.15,1.17,11-.47,13.89-6.42s-.65-12.34,1.19-18.36c-1.63-6.63-5-12.49-7.77-19.36-2.87,4.41-7.07,6.66-8.3,11.21l0,0c-2.62,2.22-4.18,5.22-5.94,8.08h0c-.86,0-1.65,0-2,1l-1,1.08c-5.24-1.34-10.44-2.93-15.75-3.92-3.24-.61-5-2-5.27-5.25a177.31,177.31,0,0,0-12-45.2c-.12-2.34-.25-4.68-.37-7,.57-6.83,2.93-12.21,10-14.87,3-1.11,4.38-4.49,4.41-7.75.07-10.47-.09-20.95-.16-31.42,1.16-1.94,2.64-3.76,3.4-5.85,2-5.34-2-11.61-6.73-10.24-6.15,1.78-12.14.55-18.19.84-5.42.25-11.16.29-15,5a25.69,25.69,0,0,0-5.2,23.48c1.6,6.42,5.06,12.08,8.28,17.8L558,482.18c-.7,1.25-2.41,1.89-2.2,3.68-3.78,2.12-8.19,3.49-9.71,8.27-2.85,3.29-5.55,6.69-7.06,10.87-1.57.74-2.85,1.8-4.68,2.34-8.41,2.44-17.38,4.16-22.14,12.94-1.94-2.4-4.71-.73-7-1.45-10.66-3.39-21.44-2.07-32.22-.82-.22-3-.54-6.1,1-8.95l20.1-.11c1.4.14,1.84-.65,1.82-1.87-.65-3.46-3.41-1.94-5.22-2-6.63-.21-6.63-.1-6.63-6.85,0-7,0-13.94,0-20.91,0-4,1.55-6.5,5.6-7.46,3.08-.73,5.43-2.26,5.39-6.07-.11-9.47.19-18.94-.15-28.39-.14-3.95-1.79-8.16-6.11-9.09-3.77-.81-8-1.18-11.76.4a11,11,0,0,1-8.6.37,27.58,27.58,0,0,0-9.3-1.16c0-8.57-.1-17.14-.12-25.7,0-10.3,0-10.3-10.15-10q-37,0-74,.12c-1.16,0-2.77-.76-3.29,1.2a241,241,0,0,0,0,36.84c.45,2,2,1.23,3.2,1.27,4.57.14,9.14.18,13.71.26-.07,8.31-.12,16.62-.23,24.93-.05,4.45.94,9.17-3,12.68-5.09-.85-10.21-.24-15.31-.42-1.49-.06-2.61.38-2.73,2.1a1.62,1.62,0,0,0-1.82,1.85c.2,8.3-.67,16.62.47,24.9a11,11,0,0,0,.12,7,1.35,1.35,0,0,0,.09,1.9c-.16.6-.33,1.21-.5,1.81-2.35.6-5.07-.63-7.24.85l.07,1.54h21.77c1.65,3.36,1.15,6.76.18,10.17a227.35,227.35,0,0,0-23.63.37c-7.21.54-14.21,2.77-21.49,2.29.17-.79.06-1.91.55-2.34,5.58-4.89,8.44-11.67,12.39-17.68,6.24-9.51,11.57-19.26,10.15-31.36-.7-5.94-3.75-9.52-9.63-9.53-4,0-7.75-.86-11.93-.42-7,.72-13.1,3.56-19.59,5.32-8.51,2.31-16.05,7.25-24.32,10.39-3.08,1.17-7,1.49-9.14,4.88.88,1,2.72.94,2.63,2.73-1.16,0-2.63.37-3.42-.18-5.42-3.82-8.8-.21-12.3,3.12-1.08,1-2.05,2.16-3.15,3.14-2.72,2.42-5.67,1.79-6-1.66-.37-4.18-.58-8.36,1-12.65,2.47-6.75,5.13-13.43,8.16-19.91,2.81-6,4.27-12.72,8.48-18.08.45,1.64,1.08,3.06,3,1.48a14.4,14.4,0,0,0,3.49-3.52c6-10.26,14.72-17.9,23.51-25.57a176.19,176.19,0,0,1,51.3-31.57,205.64,205.64,0,0,1,53.92-13.09c12.58-1.36,25.41-1.44,38.13-2.24a87.56,87.56,0,0,1,23,1.46c8.15,1.64,16.89.31,25.37.4,4,0,8-.37,11.93.36,9.21,1.69,18.38,3.71,27.83,3.62,2.82,0,5.73-.42,8.46.1,3.76.72,7.83.9,10.92,3.74-.13.48-.09,1.12-.4,1.41-10.52,10.29-19.56,21.89-29.13,33-8.76,10.18-9.85,10.34-18.64.2-2.79-3.21-8-4.07-11.4-1.72-1.71,1.19-3.1,2.83-1.85,5.06,1.46,2.62,1.25,5.44,1.59,8.23a142.28,142.28,0,0,0,2.47,14.68c.37,1.65,1,4.85,3.56,3.74,5.34-2.29,11.5-.74,16.47-3.64,3.76-2.19,8.16-1.27,11.93-3.89,10.28-7.14,19.9-15.1,29.82-22.68,13.73-10.48,27.79-20.56,40.9-31.88,2.15-1.86,4.13-4.47,7.5-4.48,0,2.8.39,5.89,3.84,6,7.19.14,14,2.69,21.08,3.08,14.16.76,28.23,2.28,42.34,3.77a344.12,344.12,0,0,0,36.56,1.93c29.46-.06,59,2.15,88.47-1.29,13.74-1.6,27.47-3.26,41.11-5.51,8.55-1.41,16.94-3.85,25.4-5.82l-.06,5A1.81,1.81,0,0,0,869.55,380Z" transform="translate(-91.9 -120.65)"/><path class="cls-1" d="M208.48,405c2.46.44,1.71,2.46,1.92,4,.12.87.32,1.72,1.33,1.81s1.14-.83,1.63-1.5c5.6-7.67,10.89-15.56,16.51-23.23,5.15-7,11.51-13,16.28-20.4,3.92-6.09,10.06-10.7,14.82-16.31,9.3-11,20-20.56,30.15-30.66,12-12,24.43-23.6,37.54-34.44,5.19-4.29,9.89-9.16,15-13.53,9.95-8.48,19.64-17.33,30.19-25s20.9-15.86,31.51-23.57c10-7.27,20.57-13.64,30.7-20.67s21-12.35,31.62-18.44c12.1-7,25-12.19,37.53-18.27,9-4.38,18-8.9,27.44-11.9,13.71-4.37,26.82-10.66,41.21-13.11,7-1.2,13.62-4.75,20.63-6.1,4.28-.82,8.66-1.9,12.75-3,5.16-1.36,10.86-.13,15.56-3.27a1.49,1.49,0,0,1,1-.22c7,1.12,13.68-1.5,20.39-2.46,9.7-1.4,19.62,0,28.91-2a90.12,90.12,0,0,1,32.42-1c8.32,1.23,17-.31,25.18,3.07,4,1.64,8.94,1.32,13.4,1.91,8.22,1.08,15.64,4.21,23.31,6.65,9.64,3,18.77,7.42,27.77,12.12,12.45,6.49,23.27,15,33.44,24.59,13.8,13,24.34,28.4,32.37,45.35,5.34,11.27,10.13,23,11.58,35.65.25,5.33-2,8.5-7.25,10.34a212.15,212.15,0,0,0-19.84,8.46c-8.39,3.95-17.33,6.25-26.05,9.2-11.33,3.83-23,6.72-34.34,10.45-5.73,1.88-11.79,4-17.73,4.3-9,.4-17.27,3.91-26.13,5-7.74.94-15.29,3.76-23.33,3.31a19.18,19.18,0,0,0-10.44,2.22c-3.14,1.63-6.81,3.6-10.86,2.64.68-3.57,4.34-3.83,6.54-5.64,8-6.63,16.36-12.88,24.58-19.26.16,1.78,1.39,1.91,2.83,2.05,2,.2,3.38-1.45,5.06-1.73,11.31-1.91,22.19-5.69,33.54-7.46,3.82-.6,8.13-.85,11.39-2.37,7-3.25,14.61-2.89,21.55-5.51,6.09-2.3,12.85-2.14,18.66-5.4,8.86-5,17.79-9.63,25.62-16.43,5.78-5,10.36-10.23,13.17-17.35,1.15-2.94-.14-2.68-2-2.77-2.34-4.57-5.42-8.1-11.09-8.07.37-2.42-1.38-3.72-3-4.69-3.58-2.22-7.45-4-11-6.16a11.79,11.79,0,0,0-7.8-2c-.18-1.38-1.07-1.72-2.34-2.09-5.08-1.5-10-3.33-15.27-4.48a43.61,43.61,0,0,0-20.6,0c-4.15,1-8.28,2.72-12.85,2.74a34.22,34.22,0,0,0-10.9,2.37c-6.9,2.49-14,3.58-21,5.45-6,1.6-12,2.88-18,4.42-8.27,2.12-16.4,5.12-24.79,6.31a135.16,135.16,0,0,0-20.69,4.94c-9.74,3-19.81,4.18-29.5,7.2s-19.28,5.49-29.12,7.58-19.35,5.86-29.34,7.92c-4.28.88-8.85,1.39-13.21,2.95-5.22,1.86-10.77,3.24-16.22,4.63-4.75,1.22-9.92,1.49-14.22,3.6A31.23,31.23,0,0,1,530,261.06c-3.58-1.95-6-5.81-10.9-5.65-2.07.07-3.25-2-3.11-4.38a20.4,20.4,0,0,0-.12-5.47c-.57-2.64-1.8-6-4.88-5.27-4.52,1-10.29,2.36-11.93,6.77-2,5.34-4.11,5.32-8,3h0c-.06-2.08-1.53-2-3-2-4.89-2.81-8.43-7.23-12.64-10.83-10.54-9-21.72-15.48-36.29-14.29-7.32.59-14.73-.23-21.91,2.12-3.23,1.06-5.4,4.55-3.48,7.32,4.56,6.57,7.77,13.9,11.92,20.7,4.9,8,9.14,16.48,14.52,24.23-.16,1.56-1.32,1.57-2.51,1.81q-9.57,2-19.12,4.11c-1.65.36-3.19.92-3.28,3.11-.13,3.37,8,11.33,12.58,9.51,7.17-2.87,15.26-2.34,22.33-5.74-2.24,4.37,2,6.73,3.16,10,1.83,5,6.66,8.41,7.86,13.84-1.28,1.56-3.05,1-4.65,1.05-6.92.29-13.41-2.64-20.49-2.11-19.58,1.47-39.27-1.74-58.91,1.86-7.48,1.37-15,2.78-22.49,4a131.16,131.16,0,0,0-33.7,10.44c-17.32,7.84-34.34,16.43-49.46,28.71C254,372,238.5,387.6,225.48,405.67c-3.6,5-9.19,8.83-10.35,15.49C209.73,417.07,208.64,411.21,208.48,405Z" transform="translate(-91.9 -120.65)"/><path class="cls-2" d="M335.17,521.92c7.28.48,14.28-1.75,21.49-2.29a230.16,230.16,0,0,1,23.63-.38c.17,2.73.78,4.81,4.32,4.68s3.25-2.59,3.47-4.86a21.56,21.56,0,0,1,7.78-1.16c15.91.05,31.81.13,47.71,0a86.88,86.88,0,0,1,21.58,2.24c.42,2.58,1.6,3.92,4.53,3.84,2.73-.08,3.78-1.34,4.07-3.74,7.63-.59,15.36-.92,22.77,1,4.89,1.26,10.05-.65,14.67,1.89A126.81,126.81,0,0,0,508.61,543c-25.62,0-51.25.12-76.87-.11-7.9-.07-13.76,5-13.69,13.92.11,13.16,0,26.32,0,39.48,0,7.87,6.63,14.65,14.36,14.67q38.43.08,76.87,0c1.78,0,3.71.41,5.1-1.27,4.63,3.53,9.17,7.25,15.6,6.38,1,1.58.63,3.47,1.4,5.27,2,4.67-1.4,12.53-5.48,14.49-1.71-.73-3.62-1.64-4.58.78-1.2,3,.33,5,3,6.18,1,3.48-.34,7.47,2.23,10.55,1.57,1.89,3.38,3.6,6.09,3.61s2.15-2.43,2.74-4c1.34,2,3.53,3.34,4.19,5.81-7.36,8.09-11.7,18.23-18.17,27-4,5.38-7.07,11.45-10.56,17.21l-16.2.25-2-.16c.53-1.54-2.2-2.13-.71-4.36,9.11-13.68,17.94-27.56,26.86-41.37,1.18-1.82,2.57-3.59,1.65-6.84a42.53,42.53,0,0,0-3.41,4c-8.62,13.43-17.34,26.81-25.68,40.41-1.91,3.11-3.88,4.68-7.41,4.26a19.08,19.08,0,0,1-4.39-.7,18.3,18.3,0,0,0-14.68.14c-5.28,2.21-9.55,6.41-16.28,5.9-10.74-.82-21.58-.32-32.38-.18-6.63.09-9.05,2.84-7.94,8.94.87,4.75,4.56,6.13,8.77,6.21,7,.13,14,0,20.94.07,1.89,0,4.11.12,3.36,2.86-.87,3.14-1.14,6.52-3.58,9.13-5.93,6.33-9.78,14-14,21.53-13.65,0-27.29-.07-40.93,0-2.74,0-5-.55-6.38-2.94-2.17-3.87-4.22-7.8-3.45-12.57a13,13,0,0,0-2.1-9.45c1.26-.26,2.62-1.09,2-2.28-2.62-4.75-1.26-10.28-3.63-15.23-5.19-10.82-11-20.82-21-28.11a48.79,48.79,0,0,0-15.6-7.25c-7.58-2.24-15.56-2.6-22.4-.54-14.14,4.26-25.42,13.09-32.26,26.94-4.18,8.47-7.16,17.12-7.69,26.56-.51,4.28,1,8.89-2.18,12.72H254.3c-1.54-1.47-3.45-.78-5.21-.86-7.91-.35-16,2.61-23.72-1.14h0c-.1-1.24-1.13-1.91-1.68-2.84-2-3.33-5.75-6.1-3.82-10.82a12.71,12.71,0,0,1,2.69-1c5.68-.84,6.84-2.13,6.93-8,0-1.32,0-2.65,0-4-.25-5.41-2.47-7.86-7.87-8-4.08-.13-8.18.25-12.27.41.83-2.22.58-4.33.31-6.71-1.65-14.63-3.93-29.27-3-44.05.18-3.1,1.87-6.27,3.43-9.09,4.05-7.35,7.45-15.1,12.52-21.82a8.94,8.94,0,0,0,1.72-6.93c2.07.06,3.2-1.21,4.23-2.8,2.64-4.1,5.62-8,8-12.24,2.85-5.09,7.52-9.1,8.84-15.06,2-.29,3-2,4.05-3.35,6.66-8.47,12.58-17.48,20.72-24.79,3.44-3.1,7.74-6.43,7.42-12.16,2,1.15,3.55,1.39,5.64-.48a95.24,95.24,0,0,1,12.52-9.47,70.07,70.07,0,0,1,25.41-10.06,4,4,0,0,0,4.08-1.73l4.91-.29c1.33.39,2-.24,2.28-1.49ZM357.67,611H387.1c8.94,0,13.82-5.14,14.08-14.28.33-11.61-.49-23.21.72-34.85,1.24-12-4.56-18.67-15.3-18.84-13.3-.2-26.6-.07-39.9,0a10.66,10.66,0,0,0-9.33,5.57c-7,12-13.49,24.37-20.62,36.33-3.16,5.3-2.92,10.82-2.3,16.28s6.79,9.78,12.3,9.79Q342.22,611,357.67,611Zm-133.38,65c0-5.15,0-10.29,0-15.44,0-3.62-1.77-5.51-5.46-5.51s-5.46,1.89-5.46,5.51q0,15.43,0,30.88c0,3.63,1.79,5.51,5.46,5.5s5.46-1.86,5.45-5.5Q224.3,683.66,224.29,675.94Zm201.08-37.22c3.16,0,6.32,0,9.49,0,2.82,0,3.23-1.78,3.18-4s0-4.54-3.2-4.54c-6.32,0-12.64,0-19,0a3.87,3.87,0,0,0-4.17,4c.07,2.22,1.09,4.58,4.18,4.55S422.21,638.73,425.37,638.72Zm-46.22,26.86c0,4.79,2.81,8.35,6.51,8.3,3.07,0,6.48-4.59,6.45-8.64s-3.84-8.38-7-8.17S379.14,661.47,379.15,665.58Z" transform="translate(-91.9 -120.65)"/><path class="cls-3" d="M696.57,306.91c4,1,7.72-1,10.86-2.64a19.18,19.18,0,0,1,10.44-2.22c8,.45,15.59-2.37,23.33-3.31,8.86-1.07,17.1-4.58,26.13-5,5.94-.27,12-2.42,17.73-4.3,11.38-3.73,23-6.62,34.34-10.45,8.72-2.95,17.66-5.25,26.05-9.2a212.15,212.15,0,0,1,19.84-8.46c5.21-1.84,7.5-5,7.25-10.34.55.32,1.54.59,1.58,1,.41,3.71,1.75,7.34,2.16,10.9,2.05,18,4.35,36,3.18,54.22-.53,8.27-.06,16.7-1.28,24.78s-2.33,16.29-5.35,24c-.9,2.31.74,5.06-1.31,7.13-8.46,2-16.85,4.41-25.4,5.82-13.64,2.25-27.37,3.91-41.11,5.51-29.52,3.44-59,1.23-88.47,1.29A344.12,344.12,0,0,1,680,383.7c-14.11-1.49-28.18-3-42.34-3.77-7.08-.39-13.89-2.94-21.08-3.08-3.45-.06-3.8-3.15-3.84-6l0,0a4.87,4.87,0,0,0,3.78-.81c4-3,8.21-5.83,11.75-9.31,2.41-2.38,6.06-2.6,6.73-1,1.78,4.28,5.67,4.92,8.82,6.28s7.06,3,9.86-1.18l0,.07c2.3-.07,4.81.42,6.88-.32,7.71-2.73,16-3.23,23.63-5.83,3.28-1.11,7.54-.38,9.74-4.14,4.68,1.36,7-.77,6.45-5.8-.81-7.38-1.65-14.74-3.59-21.95-.81-3,.18-6.23-1.32-9.29a5.13,5.13,0,0,0-5.23-3c-2.79.19-1,2.92-1.64,4.39-1.92-.23-2.88-2.69-5.11-2.17C687.26,312.72,691,308.61,696.57,306.91Z" transform="translate(-91.9 -120.65)"/><path class="cls-4" d="M277.54,545.67c.32,5.73-4,9.06-7.42,12.16-8.14,7.31-14.06,16.32-20.72,24.79-1.1,1.39-2,3.06-4.05,3.35-4.38-1.55-7.07-5.23-10.3-8.21-7.85-7.23-8.48-7-18.11-2.71-3.17,1.41-7,3.75-10.6,2.52-6.89-2.34-13.32-5.63-18.26-11.38-6.12-7.1-10.93-14.46-9.81-24.53.68-6.18,3.82-9.64,10-9.71,8.94-.09,13-4.32,13.06-13.28,0-5.22-2.53-9.46-4.65-13.85-2.8-5.8-7.36-9.24-14.09-8.79a109.59,109.59,0,0,0-12.8,1.39c-7.6,1.42-16.09-2.4-19.76-9.06a42.86,42.86,0,0,1-5-25.47c.9-1.17,2.12-2.21,2.65-3.53,3-7.4,11.53-9.41,18.91-6.08,1.67.75,3.21,1.8,5.12,1.81,4.07,0,8.87,1.35,11.37-3,3.74-6.49,5.92-13.54,1-20.47-5.08-7.11-10.8-13.76-15.72-21-7.4-10.86-9.69-22.8-5.24-35.42,2.25-6.39,6.74-11,13.75-12.11,9.44-1.54,17,2.13,22.14,9.82a46.56,46.56,0,0,1,7.35,21.82c.32,3.5,2.36,6.6,2.1,10.19.16,6.24,1.25,12.1,6.65,16.19l.07,0c-.09,2.84,1.92,3.52,4.12,4,7.89,7,17.46,6.58,24.48-1.16,3.63-4,7.09-8.17,10.65-12.25,4.26-4.89,10-6.46,15.64-4.34,5.42,2,8,7.21,9.35,13.05s-.63,11.51-.39,17.25c-4.21,5.36-5.67,12.05-8.48,18.08-3,6.48-5.69,13.16-8.16,19.91-1.56,4.29-1.35,8.47-1,12.65.31,3.45,3.26,4.08,6,1.66,1.1-1,2.07-2.12,3.15-3.14,3.5-3.33,6.88-6.94,12.3-3.12.79.55,2.26.14,3.42.18,9.67,9.39,10.64,17.16,3.08,28.13C282.34,522.21,275.59,532.38,277.54,545.67Z" transform="translate(-91.9 -120.65)"/><path class="cls-5" d="M145.09,462.89a42.86,42.86,0,0,0,5,25.47c3.67,6.66,12.16,10.48,19.76,9.06a109.59,109.59,0,0,1,12.8-1.39c6.73-.45,11.29,3,14.09,8.79,2.12,4.39,4.7,8.63,4.65,13.85-.07,9-4.12,13.19-13.06,13.28-6.22.07-9.36,3.53-10,9.71-1.12,10.07,3.69,17.43,9.81,24.53,4.94,5.75,11.37,9,18.26,11.38,3.63,1.23,7.43-1.11,10.6-2.52,9.63-4.3,10.26-4.52,18.11,2.71,3.23,3,5.92,6.66,10.3,8.21-1.32,6-6,10-8.84,15.06-2.38,4.24-5.36,8.14-8,12.24-1,1.59-2.16,2.86-4.23,2.8-7.76.2-13.54-4.83-20.07-7.77-4.06-1.83-7.5-1.85-11,.78a14.2,14.2,0,0,0-1.81,1.66c-6.44,6.79-14.11,10-23.28,6.86-10.26-3.49-19-9.18-23.15-19.87-2.43-6.22,1.23-13.64,7.59-15.93,9.14-3.29,11.46-8.45,7.88-18-2.76-7.35-10.58-16.65-18.63-14.7-3.75.9-7.31,2.6-10.93,3.94-2.23.47-4.57-.58-6.81.48-7.25,3.44-15,1-19.74-5.35-4.49-6.1-3.79-12.64-3.92-19.32-.1-4.8,2.35-7.35,6.52-9.3a32,32,0,0,1,16.68-2.76c2.41.19-.39-.92-.15-1.49,6.82-5.25,8.58-11.85,5.85-20a14.74,14.74,0,0,0-5.71-7.27c-5.92-4.41-12.16-8.42-17.85-13.1-9.13-7.53-14.19-17.2-13.85-29.36.27-9.47,6-17.59,14.39-20,8.69-2.56,18.71,1.39,24,9.09C136.32,443.46,139.78,453.65,145.09,462.89Z" transform="translate(-91.9 -120.65)"/><path class="cls-6" d="M824.61,759.92c-8.55,2.71-16.69,6.44-25.47,8.66-4.76,1.2-3.87-1.19-4-3.37-.41-7.65-.85-15.28-1.83-22.9a274.73,274.73,0,0,0-10.39-48.55,13.61,13.61,0,0,1-.29-3c-2.46-5.3-7.74-9.36-6.73-16.21.25-1.68-1-3.37-1.73-5-1.25-2.87-3.39-5.3-4-8.49A88.11,88.11,0,0,0,762,636.51c-2.28-4.39-2.34-9.73-6.39-13.45-1.66-1.51-2.26-3.84-1.26-6.89a16.09,16.09,0,0,0-.5-11c-1.5,1.54-1,3-1.37,4.23-2.06-.77-1.63-2.63-1.66-4.14-.09-4.38,0-8.75,0-13.13.41-.27,1.15-.51,1.18-.83,1-8.79,5.74-16.23,8.82-24.26,6.85,3.28,14.2,5.07,21.53,6.65,2.83.6,4.91,1.18,6.1,3.83a114.92,114.92,0,0,0,8.68,28.79c5.34,11.41,11.39,22.51,16.5,34,8.8,19.83,16.83,40,24.31,60.37,4.7,12.8,9.94,25.41,15,38.07,1.23,3.09,1.41,5.55-2.11,7.29-3.19,1.58-6.2,3.5-9.29,5.27-1.2-.3-1.84.23-2,1.4l-.14.1A86.51,86.51,0,0,0,824.61,759.92Z" transform="translate(-91.9 -120.65)"/><path class="cls-2" d="M681.79,621.82l2,0c.1,1.38.87,2.22,2.21,2,2.63-.42,4.61,1,6.74,2.08-.47,5-4.17,8.91-4.38,14l-.75.88-.37,1.92c-5,7.05-7.38,15.32-10.47,23.24L671.58,678c-3.1,1-5.3-2.52-8.37-1.7-4.55.66-8.38-2.56-12.9-2.34-4.31.21-8.64,0-13,.05-7.17.12-13.61,2.68-19.43,6.62a54.34,54.34,0,0,0-12.83,12.06c-8.08,10.61-13.73,22-13.13,35.69-.77,6.58-.71,13.35-5,19-2.71,3.62-6,5.91-10.76,5.58-.09-1-.18-1.93-.26-2.9a2.77,2.77,0,0,0,1.58-2.81c0-4.77.05-9.55.08-14.33l.18-6c-.14-12.3,8.45-19.41,16.08-27.1.58-.58,1.22-1.1,1.78-1.7a11.45,11.45,0,0,0,3-10.52c-3.42-17.84-6.68-35.72-10.47-53.49a69.58,69.58,0,0,1-1.06-22.23c6.43-1.86,12.58-1.4,17.72,3.14,3.52,3.11,7.47,3,11.62,2.94,10.31-.05,20.62,0,30.93,0a21.08,21.08,0,0,1,4,.19C661.42,620.17,671.44,622.34,681.79,621.82Z" transform="translate(-91.9 -120.65)"/><path class="cls-7" d="M752.44,609.37c.4-1.23-.13-2.69,1.37-4.23a16.09,16.09,0,0,1,.5,11c-1,3.05-.4,5.38,1.26,6.89,4,3.72,4.11,9.06,6.39,13.45a88.11,88.11,0,0,1,8.23,24.56c.6,3.19,2.74,5.62,4,8.49.73,1.67,2,3.36,1.73,5-1,6.85,4.27,10.91,6.73,16.21-.86-.51-1.81-.36-2,.54-1.08,4.62-3.16,9.16-3.64,13.7-1.35,12.67-5.32,24.73-7.43,37.19-.8,4.71-2.1,9.32-3,14-.59,3.18-1.19,4.86-5.39,3.83-7.74-1.89-14.91-5.27-22.47-7.54a37.31,37.31,0,0,0-12.81-5.83,85.05,85.05,0,0,0-12.23-8c-3.35-3.2-2.67-6.64-.85-10.34,1.15-2.32,1.76-4.9,2.78-7.3s.53-3.4-2.13-3.29a37.72,37.72,0,0,1-5.92-.06c-3.68-.45-7.14-1.39-8.21-5.69.47-3.89-.68-8.25,3.31-11.07,4.47,0,8.93-.06,13.39-.06,7.56,0,7.85-.26,9.51-8,1.3-3.51,2.71-7,3.89-10.52,5.79-17.39,11.74-34.74,17.16-52.24C748.73,623.25,752,616.69,752.44,609.37Z" transform="translate(-91.9 -120.65)"/><path class="cls-7" d="M342.08,786.58c-5.31,1.57-10.36,4-16,4.42-22.18,1.6-36-10.07-45.6-28.55-2.87-5.52-3.56-11.67-5.28-17.52L275,728.14c.68-2.55,1.45-5.08,2-7.66,3.43-15.09,11.3-27.2,25.12-34.36,13.52-7,27.66-6.92,40.77,1.09,15.43,9.44,23,24,24.74,41.85-.05,3.16-.15,6.31-.12,9.47.14,19.24-7.79,34.36-23.15,45.74C343.5,784.9,342,785,342.08,786.58Zm-20.47-18.5c4.83,0,9.28-.84,13.38-3.86,16.92-12.47,18.66-36.93,4.78-51.91-10.52-11.35-25.58-11.38-36.64.13-8.79,9.16-11.34,25-5.86,38.09C301.94,761.65,310.93,768.13,321.61,768.08Z" transform="translate(-91.9 -120.65)"/><path class="cls-8" d="M663.21,676.27c3.07-.82,5.27,2.66,8.37,1.7,0,1.89,1.28,2.12,2.78,2,3.69,1.93,7.12,4.43,11.37,5.1.71,1.3,2,1,3.11,1.08,1.16,4.91,6.34,5.62,9.14,8.81.64,5-1,9.32-3.18,13.7-2.61,5.23-5.25,10.52-6.39,16.35a5.84,5.84,0,0,0-2.73,2.64c-4.09,9.25-8.55,18.35-12.55,27.64s-9.2,18-12.66,27.6c-.58,1.62-1.56,4.06-3.4,3.8-5.4-.76-8.17,1.69-9.73,6.46a2.44,2.44,0,0,1-2.17,1.81A66.62,66.62,0,0,1,625,787c-.05-2.28-1.47-2.42-3.21-2.06l0,0a2.26,2.26,0,0,0-1.13-2.51c-6.56-4.64-5.15-10.74-2.91-16.84,1.06-2.89,2.58-5.61,3.89-8.4a6.69,6.69,0,0,0,1.31-1.47C630.65,739.9,638.21,724,646,708.15c1.18-2.38-.43-3.23-1.18-4.69,3.86-.34,4.54-3.65,5.93-6.33,2.35-4.51,5.35-8.74,6-14A20.66,20.66,0,0,1,663.21,676.27Z" transform="translate(-91.9 -120.65)"/><path class="cls-7" d="M423.85,753c4.18-7.49,8-15.2,14-21.53,2.44-2.61,2.71-6,3.58-9.13.75-2.74-1.47-2.85-3.36-2.86-7,0-14,.06-20.94-.07-4.21-.08-7.9-1.46-8.77-6.21-1.11-6.1,1.31-8.85,7.94-8.94,10.8-.14,21.64-.64,32.38.18,6.73.51,11-3.69,16.28-5.9a18.3,18.3,0,0,1,14.68-.14,19.08,19.08,0,0,0,4.39.7c0,.61,0,1.21,0,1.81-3,0-6.48,1-8.89-.22-7-3.46-11.27.68-15.87,4.53-1.13.94-2,2.16-3.54,2.64-4.47,1.37-10.39,9.52-11.44,13.71s-1.3,9-4.79,12.45c-6,5.9-9.74,13.25-12.86,20.93-1.24,3.07-.6,5.67,2,8.06,3.66,3.38,8,6.06,10.48,10.74,1.57,3,5.87,3.11,8.1.28,6.32-8,13.43-15.73,18.19-24.65,6.15-11.5,14.33-21.24,22.45-31.12,1.86-2.26,2.37-5.79,5.39-6.84,4-1.41,3.75-3.59,1.79-6.44,6.53,1.63,13,.08,19.57,0,15.74-.3,31.49-.18,47.24-.23.7,2.54-1.26,3.61-2.84,4.61-4.31,2.72-7.57,5.88-5.6,12.37-1.82-1.37-1.18-3.37-2.85-3.54-11.92,0-23.85.09-35.76-.15-3.76-.08-4.9,1.19-4.79,4.83.28,10.09-.78,20.12-1.81,30.15-1.74,1.7-.88,3.92-1.18,5.91-2.15,6.07-3.93,12.29-7.35,17.85-4.27,7-9.75,12.33-17.95,14.35-2.11.51-2.69,1.95-2.78,4.07-.23,5.63-2.59,8.59-6.68,8.86s-6.78-2.4-7.26-8.24c-.25-3-2.48-3.33-4-4.41-1.95-1.37-4.63-1.69-6.63-3s-3.11-1.26-5.24-.09c-4.85,2.65-8,.58-10.75-6.43,1.83-5.26-2.5-7.23-5.42-9.72C427,767.06,420.92,762.21,423.85,753Zm71.68.06a56.91,56.91,0,0,0-6.36,12.9c-4.45,4.44-5.52,10.79-8.89,15.84-.88,1.32-2.38,3-.75,4.34,1.4,1.15,3.25.5,5-.63,7.18-4.78,10.57-11.71,11.78-20,2.81-2.32,1-5.78,2.09-8.53,2.8-3.7,1.27-7.59.7-11.5C497.8,748.09,495.36,750,495.53,753.06Z" transform="translate(-91.9 -120.65)"/><path class="cls-6" d="M550.52,718.15c1.67.17,1,2.17,2.85,3.54-2-6.49,1.29-9.65,5.6-12.37,1.58-1,3.54-2.07,2.84-4.6l-.3-1.87.34,0c2.11-3.16,4.94-5.36,8-7.74,4.07-3.2-1.61-18.25-6.94-18.67-3.26-.26-3.14-1.54-2.91-3.49.72-6.17-3.81-11.19-3.74-17.32,0-1-.39-4.53-3.4-4.71a126.32,126.32,0,0,1-11.28-28.61l0-2.77,1-5a21.59,21.59,0,0,0,12.72.71c11.11-2.46,20.66-8.94,31.45-12.24.13.62.26,1.24.38,1.86l0,6.9a69.58,69.58,0,0,0,1.06,22.23c3.79,17.77,7,35.65,10.47,53.49a11.45,11.45,0,0,1-3,10.52c-.56.6-1.2,1.12-1.78,1.7-7.63,7.69-16.22,14.8-16.08,27.1-2-2.36,0-5.47-1.89-8.94.41,4.09-.41,6.3-4.23,6.33-1.42,0-2.56,1.57-2.71,3.2a4.65,4.65,0,0,1-3.41,4.42c-1.92.61-1.58,2.32-2.06,3.64-1.08-.48-2.34-1.08-3.19.05-4.49,6-10.8,10.47-14.44,17.17-2.79.4-3.33,3.68-5.79,4.49-.57-3.25-1.82-.57-2.31-.11-2.45,2.31-5.21,5.29-8.53,3.37-3.49-2-2.25-6-1.43-9.43a2,2,0,0,0,0-.49c3.72-8,10.33-13.92,15.08-21.17C545.38,725.63,549.27,722.78,550.52,718.15Z" transform="translate(-91.9 -120.65)"/><path class="cls-8" d="M788.4,577.49c-1.19-2.65-3.27-3.23-6.1-3.83-7.33-1.58-14.68-3.37-21.53-6.65-1.32-.58-1.83.73-2.28,1.3a241.65,241.65,0,0,0-17.87,26.59h0c-1.39,0-1.86.82-2,2h0c-1.4-.09-2,.66-2,2-2,.92-3.94,1.91-5.06,4-3-.21-4.74,1.46-5.7,4.13l-.16.09c-3.86,2.42-6.67.58-9.22-2.28-.54-.61-1-1.26-1.55-1.89,1.21-12.12,6.92-22.51,13-32.64,8-13.29,20.68-23.37,26.45-38.24a24.65,24.65,0,0,0,5.25-1c6.57-2.46,8.12-8.61,11-13.84,1.62-3,2.66-6.61,7.05-6.66a41.14,41.14,0,0,0,5,.13c3.46-.32,4.48,1.49,5.09,4.59,2.5,12.59,5.25,25.13,7.92,37.69C793.72,561.3,792.77,569.91,788.4,577.49Z" transform="translate(-91.9 -120.65)"/><path class="cls-1" d="M423.85,753c-2.93,9.21,3.13,14.06,9.07,19.13,2.92,2.49,7.25,4.46,5.42,9.72-6.47,3.19-13.62,3.68-20.46,5.4-19.31,4.84-38.8,3.27-58.26,3.71-5.45.12-10.35-3.07-15.89-2.25-1.15.17-1.45-1.13-1.65-2.13-.1-1.6,1.42-1.68,2.27-2.31,15.36-11.38,23.29-26.5,23.15-45.74,0-3.16.07-6.31.12-9.47l3.36-1a12.94,12.94,0,0,1,2.11,9.45c-.77,4.77,1.28,8.7,3.45,12.57,1.35,2.39,3.64,3,6.38,2.94C396.56,752.93,410.2,753,423.85,753Z" transform="translate(-91.9 -120.65)"/><path class="cls-7" d="M621.66,757.25c-1.31,2.79-2.83,5.51-3.89,8.4-2.24,6.1-3.65,12.2,2.91,16.84a2.26,2.26,0,0,1,1.13,2.51c-7.55-2.09-11.76-8.17-15.94-14a49.33,49.33,0,0,1-9.53-26c.33-.81.4-1.54-.58-2l-.39-14.66c1.92-3.9,1.85-8.29,3.16-12.4A54,54,0,0,1,618,688.8c11.87-9,25.17-8.61,38.81-5.63-.69,5.22-3.69,9.45-6,14-1.39,2.68-2.07,6-5.94,6.33-4.46-.71-8.84.61-12.48,2.46C613.14,715.76,609.3,741.74,621.66,757.25Z" transform="translate(-91.9 -120.65)"/><path class="cls-7" d="M563.51,735.55c.48-1.32.14-3,2.06-3.64a4.65,4.65,0,0,0,3.41-4.42c.15-1.63,1.29-3.18,2.71-3.2,3.82,0,4.64-2.24,4.23-6.33,1.93,3.47-.15,6.58,1.89,8.94l-.18,6c-2.3.58-1.69,2.47-1.7,4,0,4.38,0,8.77,0,13.15.08,1,.17,1.93.26,2.9-.69,6.78-.19,13.65-1.56,20.37a3.22,3.22,0,0,0,1.28,3.54c5.79,3.29,10,9.39,17.41,9.87a9.08,9.08,0,0,1,4.49,1.93c1.68,1.23,3.56,2.92,2.86,5.21s-3.13,1.22-4.76,1.24c-10.31.1-20.62-.1-30.93.1-3.95.08-5.76-1.45-5.12-5.22,1.56-9.15,2.81-18.3,2.42-27.6-.14-3.15-.21-6.31-.32-9.46C564.12,747.29,563.12,741.36,563.51,735.55Z" transform="translate(-91.9 -120.65)"/><path class="cls-7" d="M645.17,794.93a2.44,2.44,0,0,0,2.17-1.81c1.56-4.77,4.33-7.22,9.73-6.46,1.84.26,2.82-2.18,3.4-3.8,3.46-9.55,8.65-18.3,12.66-27.6s8.46-18.39,12.55-27.64a5.82,5.82,0,0,1,2.74-2.64c.18,1,.37,1.92.56,2.88-.11.63-.21,1.26-.32,1.9-.27,8.42-.07,16.87-2.77,25.06-4.4,13.37-11.87,24.38-24.28,31.44-2.35,1.34-3.67,2.34-2.93,5.24s-.84,5.2-3,6.84-4.27.34-6.17-1.23C648.24,796.09,646.17,796.54,645.17,794.93Z" transform="translate(-91.9 -120.65)"/><path class="cls-9" d="M824.61,759.92a86.51,86.51,0,0,1,14.73-7.11c.52,13.55,12.21,28.17,25,31.38.42.11.73.63,1.09,1-8,5-16.54,4.61-25.35,2.79-4.41-.91-7.07-4.86-11.35-5.78C828.81,774.48,828.91,766.79,824.61,759.92Z" transform="translate(-91.9 -120.65)"/><path class="cls-7" d="M527.81,750.6a2,2,0,0,1,0,.49c-.82,3.38-2.06,7.4,1.43,9.43,3.32,1.92,6.08-1.06,8.53-3.37.49-.46,1.74-3.14,2.31.11-8.55,9.17-3.45,18.55-.18,27.72,1.29,3.62,3.13,7,2.32,10.95a3.52,3.52,0,0,1-1.9,2.76c-1.6.64-2-1.16-2.49-1.87-7.66-10-15.11-20.23-22.78-30.26-3-3.95.38-5.88,2.08-8.44,2.2-2.19,6.89-.76,7.52-5.21Z" transform="translate(-91.9 -120.65)"/><path class="cls-4" d="M656.83,683.17c-13.64-3-26.94-3.39-38.81,5.63A54,54,0,0,0,598.53,716c-1.31,4.11-1.24,8.5-3.16,12.4l-3.41-.07c-.6-13.73,5-25.08,13.13-35.69a54.34,54.34,0,0,1,12.83-12.06c5.82-3.94,12.26-6.5,19.43-6.62,4.32-.07,8.65.16,13-.05,4.52-.22,8.35,3,12.9,2.34A20.66,20.66,0,0,0,656.83,683.17Z" transform="translate(-91.9 -120.65)"/><path class="cls-7" d="M795.68,553c-2.67-12.56-5.42-25.1-7.92-37.69-.61-3.1-1.63-4.91-5.09-4.59a41.14,41.14,0,0,1-5-.13c-.21-3.11,5-.06,4-3.24-.7-2.12-.16-2,1.39-2.41,7-1.93,11.3-10.07,7.89-16.18-2.41-4.31-.87-8.44-1-12.51,0-2.72,3.41-6.53,1.54-8.55-2.5-2.71-6.2.48-9.21,1.43-7.57,2.38-15.46,1.25-23.09,2.65l1.77-4.37c1.81-.09,3.62-.25,5.43-.25,11.9-.06,23-3.63,33.91-7.84.2,2.54-1.58,4.12-2.8,6-4.06,6.27-6.13,13-4,20.48l.78,7.15c-2.45.91-2,2.39-.81,4a5.19,5.19,0,0,1-1.82,4.9c-2.12,4.1-1.61,8-.71,12.56.94,4.87,3.33,9.35,3.55,14.32.15,3.49,1.07,6.6,3.82,9a22.25,22.25,0,0,0,.27,12.47c1.61,5.84,2.58,11.85,3.82,17.79-.58,1.78-2.09,1.69-3.51,1.75Q797.31,561.35,795.68,553Z" transform="translate(-91.9 -120.65)"/><path class="cls-7" d="M209.34,704.67c4.09-.16,8.19-.54,12.27-.41,5.4.19,7.62,2.64,7.87,8,.06,1.31.05,2.64,0,4-.09,5.84-1.25,7.13-6.93,8a13.24,13.24,0,0,0-2.69,1c-6.06-2.13-12.36-.48-18.52-1.15-2.72-3.41-4.6-7-3.92-11.67C198.25,706.81,201,704.89,209.34,704.67Z" transform="translate(-91.9 -120.65)"/><path class="cls-9" d="M725.91,746.72a37.31,37.31,0,0,1,12.81,5.83c-3.22,4-2.63,9-3,13.54a36.58,36.58,0,0,0,5.86,22.34,3.43,3.43,0,0,1,.75,2.74,15.06,15.06,0,0,1-6.08-1.28c-9-4-13.73-11.47-17.59-19.86C723,762.86,723.94,754.62,725.91,746.72Z" transform="translate(-91.9 -120.65)"/><path class="cls-7" d="M828.78,782.16c4.28.92,6.94,4.87,11.35,5.78,8.81,1.82,17.34,2.23,25.35-2.79,2.64-.07,5.29-.22,7.94-.18,2.33,0,5,.09,5.48,3.07s-1.67,5-4.23,6a42.83,42.83,0,0,1-24.28,2.43c-2.54-.51-4.8-.72-7.16.53-4.81,2.56-10.46,2.24-14.13-.57s-2.77-8.37-.71-12.84A8.74,8.74,0,0,0,828.78,782.16Z" transform="translate(-91.9 -120.65)"/><path class="cls-2" d="M688.66,729.76c.11-.64.21-1.27.31-1.9,3.16.43,4.88.17,3.92-4.08a14.52,14.52,0,0,1,4.29-14.1c.86.6.63,2.31,2.17,2.32,1.07,4.31,4.53,5.25,8.21,5.7a37.72,37.72,0,0,0,5.92.06c2.66-.11,3.1,1,2.13,3.29s-1.63,5-2.78,7.3c-1.82,3.7-2.5,7.14.85,10.34-4.79,2.94-10.13,1.88-15.3,2.25-4.3.31-5.71-1.7-5.46-5.58C693.13,732.24,692.8,729.55,688.66,729.76Z" transform="translate(-91.9 -120.65)"/><path class="cls-7" d="M718.7,770c3.86,8.39,8.61,15.9,17.59,19.86a15.06,15.06,0,0,0,6.08,1.28l.11,0c.24,2.13,1.84,1.55,3.13,1.58,2.41.77,4.15,2.54,5.82,4.25,1.23,1.25,3.42,2.54,2.11,4.86-1.11,2-3,2.18-5.2,1.88-7.2-1-12.76-5.14-17.94-9.72-2.66-2.36-4.68-4.66-8.69-5.6s-8.55-4.29-9.06-8.87A9.54,9.54,0,0,1,718.7,770Z" transform="translate(-91.9 -120.65)"/><path class="cls-10" d="M798.94,569.72c1.42-.06,2.93,0,3.51-1.75,2.49,1.25,4.46,2.84,4.31,6-.09,1.8,1,2.37,2.58,3.08,1.76.81,5,.11,5,3.09-.06,4,1.83,8.34-1.92,11.73-1.09,1-2.43,2-2.58,3.54-.46,4.82-4.11,3.5-6.77,3.34-2.83-.18-4.2-2.26-4.25-5.12,0-2.32,0-4.66-.16-7-.27-3.38.32-6.74-1.44-10.13C796.21,574.68,795.48,571.24,798.94,569.72Z" transform="translate(-91.9 -120.65)"/><path class="cls-7" d="M123.47,515.3c-.24.57,2.56,1.68.15,1.49a32,32,0,0,0-16.68,2.76c-4.17,2-6.62,4.5-6.52,9.3.13,6.68-.57,13.22,3.92,19.32,4.69,6.36,12.49,8.79,19.74,5.35,2.24-1.06,4.58,0,6.81-.48-7.6,6.77-17.19,7.06-24.42.59-8.79-7.87-13.23-23.31-5.92-32.55a13.31,13.31,0,0,1,11-5.51C115.55,515.63,119.5,515.45,123.47,515.3Z" transform="translate(-91.9 -120.65)"/><path class="cls-8" d="M798.36,537.71c-2.75-2.35-3.67-5.46-3.82-9-.22-5-2.61-9.45-3.55-14.32-.9-4.59-1.41-8.46.71-12.56,3.79,6.33,4.7,13.77,7.85,20.33.34,3.53,1.72,7,1.16,10.55C800.42,534.56,800.69,536.81,798.36,537.71Z" transform="translate(-91.9 -120.65)"/><path class="cls-2" d="M563.51,735.55c-.39,5.81.61,11.74-1.51,17.4l-16.12-.18c3.64-6.7,10-11.17,14.44-17.17C561.17,734.47,562.43,735.07,563.51,735.55Z" transform="translate(-91.9 -120.65)"/><path class="cls-3" d="M225.37,738.89c7.75,3.75,15.81.79,23.72,1.14,1.76.08,3.67-.61,5.21.86-.32,2.45-2.21,2-3.8,2-6.43,0-12.86,0-19.29.05C228.19,743,226.17,741.9,225.37,738.89Z" transform="translate(-91.9 -120.65)"/><path class="cls-3" d="M201.36,724.08c6.16.67,12.46-1,18.52,1.15-1.93,4.73,1.84,7.5,3.82,10.83.55.93,1.58,1.6,1.68,2.84-4.4.22-5.6-3.66-6.4-6.35-1.75-5.87-5.36-7-10.77-6.72C206,726,202.83,727.67,201.36,724.08Z" transform="translate(-91.9 -120.65)"/><path class="cls-11" d="M524.66,752.91c-.63,4.45-5.32,3-7.52,5.21-.34-2.25-1.55-2.41-3.43-1.62-2.2.91-4.48,1.6-6.73,2.39.3-2-.56-4.21,1.18-5.91Z" transform="translate(-91.9 -120.65)"/><path class="cls-3" d="M275,728.14l.24,16.79c-2.75-.56-1.81-2.79-1.89-4.44-.12-2.8,0-5.6,0-8.7-3.07,2.62,2.64,9.46-5.07,9.09,3.14-3.83,1.67-8.44,2.18-12.72Z" transform="translate(-91.9 -120.65)"/><path class="cls-9" d="M745.61,792.78c-1.29,0-2.89.55-3.13-1.58C744,790.8,745.31,790.78,745.61,792.78Z" transform="translate(-91.9 -120.65)"/><path class="cls-7" d="M621.76,785c1.74-.36,3.16-.22,3.21,2.06C623.61,786.77,621.84,787.18,621.76,785Z" transform="translate(-91.9 -120.65)"/><path class="cls-9" d="M839.48,752.71c.18-1.17.82-1.7,2-1.4C841.34,752.52,840.61,752.92,839.48,752.71Z" transform="translate(-91.9 -120.65)"/><path class="cls-3" d="M869.55,380a1.81,1.81,0,0,1,1.91-2.06A1.78,1.78,0,0,1,869.55,380Z" transform="translate(-91.9 -120.65)"/><path class="cls-4" d="M595.76,743.08c1,.44.91,1.17.58,2C595.22,744.67,594.69,744.11,595.76,743.08Z" transform="translate(-91.9 -120.65)"/><path class="cls-3" d="M279.05,437.69c-.24-5.74,1.8-11.33.39-17.25s-3.93-11-9.35-13.05c-5.63-2.12-11.38-.55-15.64,4.34-3.56,4.08-7,8.24-10.65,12.25-7,7.74-16.59,8.15-24.48,1.15a4.58,4.58,0,0,0-4.12-4l-.07,0c1.16-6.66,6.75-10.49,10.35-15.49,13-18.07,28.55-33.67,45.94-47.8,15.12-12.28,32.14-20.87,49.46-28.71a131.16,131.16,0,0,1,33.7-10.44c7.5-1.18,15-2.59,22.49-4,19.64-3.6,39.33-.39,58.91-1.86,7.08-.53,13.57,2.4,20.49,2.11,1.6-.07,3.37.51,4.65-1.05,1.37.14,2.9.56,3.47,1.7,3,5.85,8.66,4.12,12.28,2.88,7.11-2.43,14.72-2.61,21.58-5.56,6.5-2.81,14.25-.91,20.22-5.59a4.21,4.21,0,0,1,2.42-.34c8.42.06,15.9-3.89,23.76-6,7.09-1.9,14.41-2.72,21.39-5,5-1.64,10.65-1,15.39-2.54,8.63-2.8,17.6-4.15,26.19-7.23,8.88-3.18,18.74-2.94,27.75-6.3,3.5-1.31,7.29-1.81,10.84-3,6.35-2.1,13.45-.89,19.39-4.25a13.83,13.83,0,0,1,8.09-1.7c7.87.5,14.36-4.6,22-5.28,7.07-.64,13.46-4.81,20.75-4.7a14.35,14.35,0,0,0,7.64-1.92c5.57-3.3,12-3.39,18-4.86,7.21-1.77,14.86-2.88,21.82-4.91,9.26-2.7,18.77-4.33,27.93-7.29,8-2.6,16.87-1.91,24.55-6s16.37-2,24.14-5c5.55-2.17,11.48-3.26,16.82-6,1.82.09,3.11-.17,2,2.77-2.81,7.12-7.39,12.35-13.17,17.35-7.83,6.8-16.76,11.46-25.62,16.43-5.81,3.26-12.57,3.1-18.66,5.4-6.94,2.62-14.59,2.26-21.55,5.51-3.26,1.52-7.57,1.77-11.39,2.37-11.35,1.77-22.23,5.55-33.54,7.46-1.68.28-3,1.93-5.06,1.73-1.44-.14-2.67-.27-2.83-2.05,2.46-3,5.77-4.95,9-7a1.83,1.83,0,0,0,2-1.92c.93-.77,1.39-2.19,2.93-2.11a1.79,1.79,0,0,0,2.05-1.92c2-.56,2.63-2.22,3.06-4l0,.05c4.57-.17,7-3.94,10.23-6.25a1.82,1.82,0,0,0,.36-1.74c-.6-1.12-1.69-.8-2.59-.36-3.18,1.55-6.75,1.63-10,2.7-3.07,1-6.64.82-9.12,3.41-13.28,1.68-26,5.8-39.11,8.53-12.72,2.66-25.13,6.84-37.87,9.37-14,2.77-25,9.89-34.24,20.27-18.3,20.6-36.35,41.43-54.83,61.87-3.07,3.39-5.38,7.68-9.65,9.94-3.09-2.84-7.16-3-10.92-3.74-2.73-.52-5.64-.13-8.46-.1-9.45.09-18.62-1.93-27.83-3.62-4-.73-8-.31-11.93-.36-8.48-.09-17.22,1.24-25.37-.4a87.56,87.56,0,0,0-23-1.46c-12.72.8-25.55.88-38.13,2.24a205.64,205.64,0,0,0-53.92,13.09,176.19,176.19,0,0,0-51.3,31.57c-8.79,7.67-17.53,15.31-23.51,25.57a14.4,14.4,0,0,1-3.49,3.52C280.13,440.75,279.5,439.33,279.05,437.69Z" transform="translate(-91.9 -120.65)"/><path class="cls-12" d="M736.7,275c-3.24,2-6.55,3.94-9,7-8.22,6.38-16.56,12.63-24.58,19.26-2.2,1.81-5.86,2.07-6.54,5.64-5.58,1.7-9.31,5.81-13,10l-1.76.28c-1.35-.12-2,.55-2,1.85-5.36,4.73-12,7.8-17,13-2.27.56-4.14,1.64-5,4h0c-3,0-5,1.18-5.82,4.14l0,0a2.57,2.57,0,0,0-2.56,3.42c.57,2.47-.2,5.25.8,7.34,1.91,3.94.18,8.86,3.61,12.26,0,.62,0,1.25,0,1.87l0-.07c-4.24.33-7.79-1.82-11.46-3.37-1.59-.67-4,.24-4.59-2.79-1.5-7.1-1.69-7.05-7.55-2.78a9.09,9.09,0,0,0-.86.49c-5.32,5-12.36,8.06-16.48,14.45l0,0c-3.37,0-5.35,2.62-7.5,4.48-13.11,11.32-27.17,21.4-40.9,31.88-9.92,7.58-19.54,15.54-29.82,22.68-3.77,2.62-8.17,1.7-11.93,3.89-5,2.9-11.13,1.35-16.47,3.64-2.59,1.11-3.19-2.09-3.56-3.74a142.28,142.28,0,0,1-2.47-14.68c-.34-2.79-.13-5.61-1.59-8.23-1.25-2.23.14-3.87,1.85-5.06,3.37-2.35,8.61-1.49,11.4,1.72,8.79,10.14,9.88,10,18.64-.2,9.57-11.12,18.61-22.72,29.13-33,.31-.29.27-.93.4-1.41,4.27-2.26,6.58-6.55,9.65-9.94,18.48-20.44,36.53-41.27,54.83-61.87,9.22-10.38,20.27-17.5,34.24-20.27,12.74-2.53,25.15-6.71,37.87-9.37,13.07-2.73,25.83-6.85,39.11-8.52.87,1.64,1.62,2.48,3.69,1.05,2.57-1.78,5.43-2.13,7.44,1.18l0-.05a13.51,13.51,0,0,0-10,8.19C736.71,273.85,736.71,274.45,736.7,275Z" transform="translate(-91.9 -120.65)"/><path class="cls-13" d="M365.51,506.7c.17-.6.34-1.21.49-1.8,1.36-.69,1.09-1.32-.08-1.91a11.09,11.09,0,0,1-.13-7c2.09-.94,1.31-2.84,1.32-4.36.08-7.46,0-14.92,0-22.39.12-1.72,1.24-2.16,2.73-2.1,5.1.18,10.22-.43,15.31.41,0,11,0,21.94-.06,32.91,0,2.4-.28,4.57,3.38,4.63,3.94.06,3.65-2.3,3.64-4.88,0-8.65.1-17.29-.06-25.93-.07-3.47.35-5.26,4.69-5.53,4.1-.25,8.22-.84,12.34-.69,3,.12,4.09-1,4-4-.16-7.48-.05-15-.05-22.44,0-10.82,0-10.82-10.26-11.92,4.21-2.88,8.3-2.24,12.32.42,0,11.1-.14,22.21-.13,33.32,0,1.43-.74,3.61,2.07,3.54l2,.08,2,0c1.8,1.08,3.8,1,5.8,1,7.82,0,15.64.09,23.46-.05,3.76-.07,5.25,1.4,4.53,5.11-1.74,9.08-.47,18.24-.74,27.37-.11,3.71,2.43,4.54,5.7,4.6,3.81.06,3.2-2.5,3.2-4.77q0-14.49,0-29c0-2.26-.18-4.52,3.12-4.34l1.83-.21,7.07.33c.18,1.4.8,1.85,2.25,1.35,1.63-.57,3.37-1,4.78.63q-.07,18.78-.14,37.55c-5.31.09-10.63.25-15.95.27q-39.92.15-79.84.24l-4-.06Z" transform="translate(-91.9 -120.65)"/><path class="cls-14" d="M277.54,545.67c-2-13.29,4.8-23.46,11.82-33.63,7.56-11,6.59-18.74-3.08-28.13.09-1.79-1.75-1.74-2.63-2.73,2.1-3.39,6.06-3.71,9.14-4.88,8.27-3.14,15.81-8.08,24.32-10.39,6.49-1.76,12.62-4.6,19.59-5.32,4.18-.44,8,.41,11.93.42,5.88,0,8.93,3.59,9.63,9.53,1.42,12.1-3.91,21.85-10.15,31.36-3.95,6-6.81,12.79-12.39,17.68-.49.43-.38,1.55-.55,2.34l-2.8.23a1.7,1.7,0,0,0-2.27,1.49l-4.91.29c-2.26-1.54-3.23-.07-4.08,1.73a70.07,70.07,0,0,0-25.41,10.06,95.24,95.24,0,0,0-12.52,9.47C281.09,547.06,279.53,546.82,277.54,545.67Z" transform="translate(-91.9 -120.65)"/><path class="cls-15" d="M586.72,603.1c-10.79,3.3-20.34,9.78-31.45,12.24a21.59,21.59,0,0,1-12.72-.71.71.71,0,0,0-.79-.39c-.2-11.13,2.11-22.08,2.55-33.21.22-5.51,1.78-11.61,5.53-16.45,1.21-.56.84-1.73,1-2.69h-.13c.46-.16,1.14-.18,1.37-.51,9.93-13.91,19-28.27,20.41-45.9.67-8.2-1.55-15.56-8.86-20.29-5.56-3.58-11.5-4.91-17.64-1.07,1.52-4.78,5.93-6.15,9.71-8.27a3.57,3.57,0,0,0,2.37,2.92c6.93,3.3,13.88,6.57,19.6,11.86a177.49,177.49,0,0,1,12,45.21c-2.16.42-2.69,2-3,3.92-1,5.7.76,11.34.27,17-.14,1.69-.58,3.64.94,5.11,0,8.71,0,17.42-.11,26.13C587.8,599.77,588.47,601.72,586.72,603.1Z" transform="translate(-91.9 -120.65)"/><path class="cls-7" d="M508.61,543a128,128,0,0,1,2.57-19.88,3.53,3.53,0,0,0,1-2.81c4.76-8.78,13.73-10.5,22.14-12.94,1.83-.54,3.11-1.6,4.68-2.34l2.45.18c-.79,4.24-3.25,8-4.15,12.05-1.78,8-3,16.19-4,24.35-.41,3.16-1.3,6.58.78,9.64a220.7,220.7,0,0,0-2.5,26.78c-1.81.44-1.56,1.91-1.56,3.21,0,5.66.09,11.32.13,17q0,8.94-.1,17.89c-6.43.87-11-2.85-15.6-6.38a19.8,19.8,0,0,0-1.74-2.87c-4-4.56-6.38-9.68-5.87-16.09.61-7.69.37-15.3,1.9-23.07S508.77,551.23,508.61,543Z" transform="translate(-91.9 -120.65)"/><path class="cls-6" d="M759.28,471.78c7.63-1.4,15.52-.27,23.09-2.65,3-.95,6.71-4.14,9.21-1.43,1.87,2-1.59,5.83-1.54,8.55.08,4.07-1.46,8.2,1,12.51,3.41,6.11-.9,14.25-7.89,16.18-1.55.43-2.09.29-1.39,2.41,1,3.18-4.21.13-4,3.24-4.39.05-5.43,3.71-7.05,6.66-2.87,5.23-4.42,11.38-11,13.84a24.67,24.67,0,0,1-5.24,1c-.08-2.53-2.13-2-3.63-2.32-1.77-2.64-4.06-4.83-5.43-7.86-3.34-7.39-.77-13.19,4.41-18.23,5.61-5.47,8.75-11.39,6.21-19.48-1.31-4.16,1.17-8.05,1.8-12.09Z" transform="translate(-91.9 -120.65)"/><path class="cls-7" d="M558.16,470.66c-3.22-5.72-6.68-11.38-8.28-17.8a25.69,25.69,0,0,1,5.2-23.48c3.89-4.75,9.63-4.79,15-5,6-.29,12,.94,18.19-.84,4.74-1.37,8.68,4.9,6.73,10.24-.76,2.09-2.24,3.91-3.4,5.85-1.38.57-3.33,0-4,2-4.51.1-8.62,0-8.41,6.78.1,3.29-4.35,4.81-7.09,6.14-2.16,1-2.27-2.55-3.41-4s-2.28-2-3.86-1.53a4.08,4.08,0,0,0-2.92,3.62c-.39,2.87,1,5.12,2.13,7.52C566.49,465.28,563.59,470.36,558.16,470.66Z" transform="translate(-91.9 -120.65)"/><path class="cls-10" d="M402.82,429.67c10.27,1.1,10.27,1.1,10.27,11.92,0,7.48-.11,15,.05,22.44.07,3.05-1,4.13-4,4-4.12-.15-8.24.44-12.34.69-4.34.27-4.76,2.06-4.69,5.53.16,8.64,0,17.28.06,25.93,0,2.58.3,4.94-3.64,4.88-3.66-.06-3.39-2.23-3.38-4.63,0-11,0-21.94.06-32.91,4-3.5,3-8.22,3-12.67.11-8.31.16-16.62.23-24.93l6.06-.28Z" transform="translate(-91.9 -120.65)"/><path class="cls-9" d="M558.16,470.66c5.43-.3,8.33-5.38,6-10.46-1.12-2.4-2.52-4.65-2.13-7.52a4.08,4.08,0,0,1,2.92-3.62c1.58-.51,2.8.2,3.86,1.53s1.25,5,3.41,4c2.74-1.33,7.19-2.85,7.09-6.14-.21-6.82,3.9-6.68,8.41-6.78.45,2.21,2.44,3.68,2.3,6.33-.32,5.76.3,11.6-.24,17.33-.36,3.73-.9,9.29-4.07,10.33-6.83,2.24-10.22,6.25-11.3,12.92A14.22,14.22,0,0,1,574,490c-6.19-.83-11-4.51-16-7.78Z" transform="translate(-91.9 -120.65)"/><path class="cls-13" d="M394.51,429.65l-6.06.28c-4.57-.08-9.14-.12-13.71-.26-1.16,0-2.75.68-3.2-1.28,3.31-.08,6.64-.29,9.95-.19,2.77.09,3.82-.89,3.75-3.75-.17-6.82-.06-13.64-.05-20.46,0-11.91,0-11.91-11.64-12.21-.66,0-1.32-.14-2-.22.52-2,2.13-1.2,3.29-1.2q37-.11,74-.12v1.62c-1.42.17-1.89,1-1.89,2.39q0,15.4,0,30.79c0,1.4.13,2.92,1.91,2.88,2.88-.08,5.93,1.13,8.62-.87l1.43.19c0,.93,0,1.86,0,2.78-12.75.82-25.7-2-38.28,2-.11-.66-.23-1.31-.34-2a10.16,10.16,0,0,1,7.34-2c2.8.21,5.64,0,8.46,0s3.47-.87,3.34-3.93c-.41-9.6-1-19.24.32-28.82.32-2.34-.42-3.52-2.8-3.52q-20.93,0-41.83,0c-1.69,0-2.44.54-2.37,2.72.32,9.46.33,18.93.32,28.39A13.32,13.32,0,0,0,394.51,429.65Z" transform="translate(-91.9 -120.65)"/><path class="cls-6" d="M610.77,555l1-1.08c1.09.51,2.11.87,2-1h0c4.78-.64,4.73-4.82,5.94-8.09l0,0c1.64,0,3.28.09,4.92.1,6.33,0,8.08,1.77,8.19,8.17l.09,3.94c.21,1.79-2.18,2.19-2.09,3.92-1.32,0-2.64.15-4,.13-5.3,0-6.8,1.49-6.91,6.89a8.08,8.08,0,0,0,2,5.93c-.43,1.28-.85,2.57-1.27,3.85-5.14,7.1-5.13,7.08-12.76,2.24-2.29-1.46-4.66-2.77-7-4.16-.24-3.47,4-5.93,2.24-9.75,1.74-1.36,2.6-3.35,3.71-5.16C608.28,559.05,610.89,557.93,610.77,555Z" transform="translate(-91.9 -120.65)"/><path class="cls-16" d="M759.28,471.78l-1.49.29c-.18-1.82-1.67-2.26-3-3-7-3.7-7.46-7.5-3.35-14.2a14.77,14.77,0,0,1,10.26-7.4c2.78-.57,3.25-2.42,3-4.81-.85-7.68,2.09-13.77,7.62-18.93,2.8-2.62,13.76-4.43,16.51-1.75,3.39,3.28,8.17,5.34,9.85,10.22.89,2.57,3,1.53,4.61,1.75,5,.67,10.21-1.46,14.89,2,4.34,3.2,5.06,11,1,14.66-2.17,2-4.58,3.71-6.69,5.75-3.85,3.73-5.89,8.17-5,13.74.25,1.49.58,3.52-2,3.8q0-8.4.08-16.8c.11-1.39,1.14-1.71,2.22-2.27a29,29,0,0,0,8.71-6.27c4.35-4.94,4-7-1.88-10.69-2.87-2.67-8.25-2.69-11.26,0h-4.71c-2-2.31-3.58-5-5.5-7.18-3.66-4.24-8.72-6.77-14.54-5.58-5.51,1.12-8.9,4.95-10,10.43-1,4.68-1.48,9.44-2.19,14.17-4.89,1.43-9.93,2.53-13,7.3-2.35,3.72-1,7.13,3.14,8.31,1.55.44,3.31.63,4.41,2.11Z" transform="translate(-91.9 -120.65)"/><path class="cls-6" d="M371.57,391.56c.66.08,1.32.2,2,.22,11.64.3,11.64.3,11.64,12.21,0,6.82-.12,13.64.05,20.46.07,2.86-1,3.84-3.75,3.75-3.31-.1-6.64.11-9.95.19A240.86,240.86,0,0,1,371.57,391.56Z" transform="translate(-91.9 -120.65)"/><path class="cls-16" d="M458.89,430c0-.92,0-1.85,0-2.78.05-.44.11-.88.16-1.32a27.58,27.58,0,0,1,9.3,1.16,11,11,0,0,0,8.6-.37c3.73-1.58,8-1.21,11.76-.4,4.32.93,6,5.14,6.11,9.09.34,9.45,0,18.92.15,28.39,0,3.81-2.31,5.34-5.39,6.07-4.05,1-5.63,3.48-5.6,7.46.06,7,0,13.94,0,20.91,0,6.75,0,6.64,6.63,6.85,1.81.06,4.57-1.46,5.22,2L494,507l-12.05-.44q.07-18.78.14-37.55c1.95-.25,3.06-2.09,5.29-2.28s3.67-2.38,3.65-5.08q-.09-14.15,0-28.28c0-2.6-1.07-3.55-3.56-3.44-4.66.2-10-1.52-12.13,5-.21-2.71.39-5.59-4.25-5.24-4.35.33-3,3.14-3,5.28-.11,10.58-.07,21.17-.09,31.76l-1.83.22q0-14.87,0-29.71C466.08,430.17,465.82,429.93,458.89,430Z" transform="translate(-91.9 -120.65)"/><path class="cls-6" d="M541.43,505.18,539,505c1.51-4.18,4.21-7.58,7.06-10.87,6.14-3.84,12.08-2.51,17.64,1.07,7.31,4.73,9.53,12.09,8.86,20.29-1.44,17.63-10.48,32-20.41,45.9-.23.33-.91.35-1.37.51.11-1.6.23-3.2.34-4.8,2.07-.53,2.48-2.51,3.4-4,4.56-7.35,7.38-15.54,10-23.66,2.46-7.68,5.69-15.51,2.72-24.11-1.68-4.86-4.24-8.29-9.25-9.34s-10.85,1.75-13.59,6.27C543.59,503.5,543.37,505.16,541.43,505.18Z" transform="translate(-91.9 -120.65)"/><path class="cls-9" d="M715,602.93c.51.63,1,1.28,1.55,1.89,2.55,2.86,5.36,4.7,9.22,2.28-2.55,4.17-5.9,7.79-6.31,13.21-.19,2.56-.92,5.71-3.4,7.66-.6-2.6-1.93-4.25-4.87-4.36s-3.44,1.82-4,3.9c-3.49,1.1-6.62.12-9.6-1.68,0-2.35.48-4.78-.92-6.94l1.21-1.86c4.48-1,7.73-4.39,11.84-6.12.93-.39,1-1.22.14-1.93,0-.64.05-1.27.07-1.91C712.27,606.54,713,603.93,715,602.93Z" transform="translate(-91.9 -120.65)"/><path class="cls-11" d="M587.13,611.86l0-6.9c.71.39,1.83,1.26,2,1.08,4.66-3.95,6.54,0,9.91,2.49,5.2,3.83,10.8,7.2,18.31,6.6,20.22-1.61,40.25,1.4,60.28,3.85,1.83.23,3.68.55,4.14,2.84-10.35.52-20.37-1.65-30.41-3.68a21.08,21.08,0,0,0-4-.19c-10.31,0-20.62-.06-30.93,0-4.15,0-8.1.17-11.62-2.94C599.71,610.46,593.56,610,587.13,611.86Z" transform="translate(-91.9 -120.65)"/><path class="cls-16" d="M715,602.93c-2,1-2.69,3.61-5.08,4.14,1.11-10,5.1-19.23,9.46-27.87a120.41,120.41,0,0,1,13.59-21.39c6.17-7.65,13-15,17.11-24.24a17.08,17.08,0,0,0,.76-3.84c1.5.32,3.55-.21,3.63,2.32C748.65,546.92,736,557,728,570.29,721.88,580.42,716.17,590.81,715,602.93Z" transform="translate(-91.9 -120.65)"/><path class="cls-9" d="M805.63,457.13q0,8.4-.08,16.8c.15,4.15-2.77,7.2-4.25,10.69-1.19,2.81-5.08.89-7.75,1.18-2.09-7.5,0-14.21,4-20.48,1.22-1.88,3-3.46,2.8-6C802.59,459.68,803.58,457.12,805.63,457.13Z" transform="translate(-91.9 -120.65)"/><path class="cls-16" d="M610.77,555c.12,2.91-2.49,4-3.88,6-.42-2-.87-4-3.52-4a18.25,18.25,0,0,1-8-1.71c-4.76-2.14-6.89.06-5.88,5.25a12.8,12.8,0,0,1,.28,3.43c-.33,3.77,1.73,4.82,5.05,5s6.11-.3,8.32-2.89c1.74,3.82-2.48,6.28-2.24,9.75-3.82-3-8-4.91-13-4-1.52-1.48-1.08-3.43-.94-5.12.49-5.7-1.29-11.34-.27-17,.34-1.93.87-3.5,3-3.92.25,3.28,2,4.64,5.27,5.25C600.33,552.09,605.53,553.68,610.77,555Z" transform="translate(-91.9 -120.65)"/><path class="cls-7" d="M481.93,506.59,494,507l.09,1.92-20.1.11-8.12.13-78.45.07a2.19,2.19,0,0,1-1.26-2.16q39.93-.12,79.84-.24C471.3,506.84,476.62,506.68,481.93,506.59Z" transform="translate(-91.9 -120.65)"/><path class="cls-16" d="M574,490a14.22,14.22,0,0,0,.39-1.42c1.08-6.67,4.47-10.68,11.3-12.92,3.17-1,3.71-6.6,4.07-10.33.54-5.73-.08-11.57.24-17.33.14-2.65-1.85-4.12-2.3-6.33.65-2,2.6-1.47,4-2,.07,10.47.23,21,.16,31.42,0,3.26-1.44,6.64-4.41,7.75-7.12,2.66-9.48,8-10,14.87C575.55,493,576,490.32,574,490Z" transform="translate(-91.9 -120.65)"/><path class="cls-6" d="M574,490c2.07.36,1.58,3.07,3.38,3.67.12,2.34.25,4.68.37,7-5.72-5.3-12.67-8.57-19.6-11.87a3.57,3.57,0,0,1-2.37-2.92c-.21-1.79,1.5-2.43,2.2-3.68C563,485.45,567.78,489.13,574,490Z" transform="translate(-91.9 -120.65)"/><path class="cls-11" d="M512.16,520.28a3.53,3.53,0,0,1-1,2.81c-4.61-2.54-9.77-.63-14.66-1.89-7.41-1.9-15.14-1.57-22.77-1a2.44,2.44,0,0,1-.8-2.2c10.78-1.25,21.56-2.57,32.22.82C507.45,519.55,510.22,517.88,512.16,520.28Z" transform="translate(-91.9 -120.65)"/><path class="cls-7" d="M632.9,557.09l-.09-3.94c-.11-6.4-1.86-8.14-8.19-8.17-1.64,0-3.28-.06-4.92-.1,1.23-4.55,5.43-6.8,8.3-11.21,2.75,6.87,6.14,12.73,7.77,19.36Z" transform="translate(-91.9 -120.65)"/><path class="cls-16" d="M632.9,557.09l2.87-4.06c-1.84,6,1.76,12.38-1.19,18.36s-7.74,7.59-13.89,6.42c.42-1.28.84-2.57,1.27-3.85,7.89,0,10.67-2.54,9.82-9.12a33.05,33.05,0,0,0-1-3.83C630.72,559.28,633.11,558.88,632.9,557.09Z" transform="translate(-91.9 -120.65)"/><path class="cls-5" d="M473,518a2.44,2.44,0,0,0,.8,2.2c-.29,2.41-1.34,3.67-4.07,3.75-2.93.08-4.11-1.26-4.53-3.84,1.61-3.55.78-7.27.7-10.93l8.12-.13C472.41,511.91,472.73,515,473,518Z" transform="translate(-91.9 -120.65)"/><path class="cls-5" d="M386.14,507.1a2.19,2.19,0,0,0,1.26,2.16,26,26,0,0,0,.68,9.81c-.22,2.27.11,4.73-3.47,4.86s-4.15-1.95-4.32-4.68c1-3.4,1.47-6.8-.19-10.16,1.16-.21,2.09-.65,2.07-2Z" transform="translate(-91.9 -120.65)"/><path class="cls-4" d="M459.09,425.92c0,.44-.11.88-.16,1.32l-1.43-.19c-.12-8.74-.28-17.48-.34-26.22-.06-8.51,0-8.51-8.34-9v-1.62c10.15-.32,10.13-.32,10.15,10C459,408.78,459.05,417.35,459.09,425.92Z" transform="translate(-91.9 -120.65)"/><path class="cls-10" d="M367.15,469.22c0,7.47,0,14.93,0,22.39,0,1.52.77,3.42-1.32,4.36-1.13-8.28-.26-16.6-.46-24.9A1.62,1.62,0,0,1,367.15,469.22Z" transform="translate(-91.9 -120.65)"/><path class="cls-7" d="M382.17,507c0,1.4-.91,1.84-2.07,2H358.34l-.07-1.54c2.17-1.48,4.89-.25,7.24-.85Z" transform="translate(-91.9 -120.65)"/><path class="cls-11" d="M692.75,625.93c-2.13-1-4.11-2.5-6.74-2.08-1.34.22-2.11-.62-2.21-2,2.94-1.86,6.26-.38,9.33-1,3,1.42-.46,3.41.45,5Z" transform="translate(-91.9 -120.65)"/><path class="cls-16" d="M709.81,609c.85.71.79,1.54-.14,1.93-4.11,1.73-7.36,5.11-11.84,6.12C700,611.6,705.14,610.65,709.81,609Z" transform="translate(-91.9 -120.65)"/><path class="cls-5" d="M693.58,625.82c-.91-1.6,2.5-3.59-.45-5-.72-4.08,2.3-1.34,3.49-1.92,1.4,2.16.88,4.59.92,6.94l-1.4.2Z" transform="translate(-91.9 -120.65)"/><path class="cls-7" d="M619.75,544.84c-1.21,3.27-1.16,7.45-5.94,8.09C615.57,550.06,617.13,547.06,619.75,544.84Z" transform="translate(-91.9 -120.65)"/><path class="cls-6" d="M793.52,497c-1.22-1.64-1.64-3.12.81-4C794.76,494.44,794.88,495.86,793.52,497Z" transform="translate(-91.9 -120.65)"/><path class="cls-10" d="M365.92,503c1.17.59,1.44,1.22.08,1.91A1.37,1.37,0,0,1,365.92,503Z" transform="translate(-91.9 -120.65)"/><path class="cls-5" d="M494.07,509,494,507l1.91.05C495.91,508.3,495.47,509.09,494.07,509Z" transform="translate(-91.9 -120.65)"/><path class="cls-7" d="M613.8,552.93c.12,1.88-.9,1.52-2,1C612.15,553,612.94,552.9,613.8,552.93Z" transform="translate(-91.9 -120.65)"/><path class="cls-14" d="M857.55,225c-5.34,2.75-11.27,3.84-16.82,6-7.77,3-16.6,1-24.14,5s-16.51,3.43-24.55,6c-9.16,3-18.67,4.59-27.93,7.29-7,2-14.61,3.14-21.82,4.91-6,1.47-12.43,1.56-18,4.86a14.35,14.35,0,0,1-7.64,1.92c-7.29-.11-13.68,4.06-20.75,4.7-7.65.68-14.14,5.78-22,5.28a13.83,13.83,0,0,0-8.09,1.7c-5.94,3.36-13,2.15-19.39,4.25-3.55,1.18-7.34,1.68-10.84,3-9,3.36-18.87,3.12-27.75,6.3-8.59,3.08-17.56,4.43-26.19,7.23-4.74,1.53-10.38.9-15.39,2.54-7,2.28-14.3,3.1-21.39,5-7.86,2.1-15.34,6.05-23.76,6a4.21,4.21,0,0,0-2.42.34c-6,4.68-13.72,2.78-20.22,5.59-6.86,2.95-14.47,3.13-21.58,5.56-3.62,1.24-9.3,3-12.28-2.88-.57-1.14-2.1-1.56-3.47-1.7-1.2-5.43-6-8.81-7.86-13.84-1.19-3.28-5.4-5.64-3.16-10,10-2.27,20-4.24,29.84-6.94,5-1.37,4.8-2.7,2.15-7.47s-6.43-5.54-10.87-4.53c-3.8.87-7.82,1.25-11.36,2.48a64.26,64.26,0,0,1-19.76,3.66c-5.38-7.75-9.62-16.19-14.52-24.23-4.15-6.8-7.36-14.13-11.92-20.7-1.92-2.77.25-6.26,3.48-7.32,7.18-2.35,14.59-1.53,21.91-2.12,14.57-1.19,25.75,5.3,36.29,14.29,4.21,3.6,7.75,8,12.64,10.83.12,2,1.54,2,3,2h0c-.25,4.9,4.34,5.88,7,8.3,6.85,6.31,15.39,8,24.18,6.27,2.39-.48,6.3-.15,7.83-3.57a31.23,31.23,0,0,0,16.58-3.44c4.3-2.11,9.47-2.38,14.22-3.6,5.45-1.39,11-2.77,16.22-4.63,4.36-1.56,8.93-2.07,13.21-2.95,10-2.06,19.46-5.83,29.34-7.92s19.57-4.59,29.12-7.58,19.76-4.19,29.5-7.2a135.16,135.16,0,0,1,20.69-4.94c8.39-1.19,16.52-4.19,24.79-6.31,6-1.54,12-2.82,18-4.42,7-1.87,14.15-3,21-5.45a34.22,34.22,0,0,1,10.9-2.37c4.57,0,8.7-1.72,12.85-2.74a43.61,43.61,0,0,1,20.6,0c5.27,1.15,10.19,3,15.27,4.48,1.27.37,2.16.71,2.34,2.08h0c-1.81.3-4.32-1.26-5.07,1.9l-4.77.25c-1.54-.27-3-.41-3.2,1.78l-5.69.34c-1.44-.41-2.19.17-2.31,1.64a56.14,56.14,0,0,0-7.81,1.35c-2.08.66-5.16.41-5.82,3s2,3.69,3.89,5,3.15,2.89,4.86,4.15c2.11,1.56,4.66,3.74,7,3.13,6.34-1.64,12.85-2.63,19.08-4.41,7.17-2,14.5-3.3,21.66-5.29C852.13,216.94,855.21,220.47,857.55,225ZM575.72,278.31c.5-3-.75-5.5-1.77-8.16-1.14-3-3.24-3.59-5.91-3a4.68,4.68,0,0,0-3.95,5.43,79.24,79.24,0,0,0,1.11,8.85c.95,4.51,4.81,5.62,8.69,3C576.47,282.81,575.55,280.47,575.72,278.31Zm138-33.65c-.17-2.95.1-5.59-1.3-8.07-1.11-2-2.08-4-4.8-3.13-2.45.82-5.2,1.55-4.84,5.21.24,2.47-.09,5,.29,7.44.84,5.51,3.48,7.27,8,5.8C715.26,250.52,713.06,247,713.68,244.66Zm60.07-12.3c-.69-2.89-1.47-5.76-2-8.67-.53-2.63-1.27-5.17-4.63-4.44-2.9.64-5.79,1.81-5.31,5.76a61.56,61.56,0,0,0,1.26,8.83c.65,2.42,2.16,4.85,5.28,4C770.88,237.06,773.89,236.25,773.75,232.36Zm-79.2,18.72c.32-2.82-1.87-5-1.89-7.72,0-3.34-1.6-5.55-5.21-4.84s-6.17,2.39-4.71,6.91c.7,2.18.65,4.6,1.21,6.84.73,3,2.19,5.1,5.85,4.64S694.28,254.07,694.55,251.08Zm-70.9,8.67a55.25,55.25,0,0,0,1.11,6.85c.53,3.5,2.35,5.12,5.73,4.23,3-.8,5.27-2.48,4.56-6.31-.54-2.9-.78-5.85-1.87-8.65-.67-1.7-1-3.52-3.37-3.67a5.78,5.78,0,0,0-5.44,2.77C623.59,256.22,623.86,258.13,623.65,259.75Zm-8.78,9.68c-.13-3,.15-5.1-.4-6.95-.75-2.54-2.12-5.32-5.27-5.07-2.11.17-4.85.81-5.18,3.74a50.66,50.66,0,0,0,0,7c.1,3.76,1.19,7.27,5.49,7.5C614.27,275.88,615.7,272.8,614.87,269.43Zm-25.37-7.22c-3.7,0-7.35,3.35-6,6s1.15,5.1,1.76,7.63c.51,2.16,1.21,5,4.23,4.61,2.65-.31,5.83-.55,6.26-4.4.45-4-3.07-13.49-5.21-13.85A6.54,6.54,0,0,0,589.5,262.21Zm-33.63,21.92c-1.07-3-.82-6.05-1.21-9a4,4,0,0,0-3.85-3.81,6.59,6.59,0,0,0-6.33,9.06c.55,1.53,1.46,2.89,1.47,4.62,0,3.66,1.73,5.2,5.6,5C556,289.82,554.62,286.17,555.87,284.13ZM674.6,254.54c.23-2.25-1-4.37-1.32-6.59-.82-5.11-4.37-4.34-7.45-3.73-3.49.68-3,3.82-2.76,6.45.13,1.47.78,2.92.78,4.37,0,4,1.42,6.25,5.88,6S674.93,258.28,674.6,254.54Zm48-18.27a39.92,39.92,0,0,0,.65,5.38c.69,2.79,1.1,6.63,5.09,5.82,3.23-.66,6.12-2.5,5.41-7.16-.43-2.82-1.74-5.35-2-8.09-.29-3.1-2.08-3.26-4.44-3.09C722.61,229.47,722.51,232.74,722.62,236.27Zm-68.73,21.29h-.17c0-1.32,0-2.65,0-4-.12-3.5-1.62-5.61-5.45-5.5-4.06.12-5.16,2.45-5.38,6.15-.17,3,2,5.16,2,8.09s1.81,4.82,4.77,4.39a4.56,4.56,0,0,0,4.2-5.16C653.83,260.23,653.89,258.89,653.89,257.56Zm98.79-25a21.7,21.7,0,0,0-.24-3.94c-.39-2.09-1.67-3.67-4-3.59-2.18.07-4.75-.79-6.06,2-.7,1.49.93,13.3,2.16,14.28a4.7,4.7,0,0,0,2.27.74C752.32,242.78,752.93,241.94,752.68,232.54Z" transform="translate(-91.9 -120.65)"/><path class="cls-12" d="M440.1,277.31a64.26,64.26,0,0,0,19.76-3.66c3.54-1.23,7.56-1.61,11.36-2.48,4.44-1,8.28-.11,10.87,4.53s2.88,6.1-2.15,7.47c-9.84,2.7-19.88,4.67-29.84,6.94-7.07,3.4-15.16,2.87-22.33,5.74-4.54,1.82-12.71-6.14-12.58-9.51.09-2.19,1.63-2.75,3.28-3.11q9.54-2.13,19.12-4.11C438.78,278.88,439.94,278.87,440.1,277.31Z" transform="translate(-91.9 -120.65)"/><path class="cls-12" d="M805.9,208.37l5.69-.34c1.47.13,2.84.08,3.2-1.78l4.77-.25c1.83-.27,4.32,1.24,5.07-1.9h0a11.85,11.85,0,0,1,7.8,2c3.6,2.19,7.47,3.94,11,6.16,1.59,1,3.34,2.27,3,4.69-7.16,2-14.49,3.25-21.66,5.29-6.23,1.78-12.74,2.77-19.08,4.41-2.35.61-4.9-1.57-7-3.13-1.71-1.26-3.12-2.93-4.86-4.15s-4.56-2.29-3.89-5,3.74-2.37,5.82-3a56.14,56.14,0,0,1,7.81-1.35A2,2,0,0,0,805.9,208.37Z" transform="translate(-91.9 -120.65)"/><path class="cls-3" d="M530,261.06c-1.53,3.42-5.44,3.09-7.83,3.57-8.79,1.77-17.33,0-24.18-6.27-2.63-2.42-7.22-3.4-7-8.3,3.93,2.32,6.06,2.34,8-3,1.64-4.41,7.41-5.74,11.93-6.77,3.08-.71,4.31,2.63,4.88,5.27A20.4,20.4,0,0,1,516,251c-.14,2.39,1,4.45,3.11,4.38C523.93,255.25,526.38,259.11,530,261.06Z" transform="translate(-91.9 -120.65)"/><path class="cls-3" d="M491,250.06c-1.46,0-2.88,0-3-2C489.45,248,490.92,248,491,250.06Z" transform="translate(-91.9 -120.65)"/><path class="cls-11" d="M508.61,543c.16,8.26,1.65,16.78.1,24.7s-1.29,15.38-1.9,23.07c-.51,6.41,1.88,11.53,5.87,16.09a19.8,19.8,0,0,1,1.74,2.87c-1.39,1.68-3.32,1.27-5.1,1.27q-38.44,0-76.87,0c-7.73,0-14.34-6.8-14.36-14.67,0-13.16.07-26.32,0-39.48-.07-8.9,5.79-14,13.69-13.92C457.36,543.09,483,543,508.61,543Z" transform="translate(-91.9 -120.65)"/><path class="cls-11" d="M357.67,611q-15.46,0-30.92,0c-5.51,0-11.69-4.42-12.3-9.79s-.86-11,2.3-16.28c7.13-12,13.61-24.3,20.62-36.33A10.66,10.66,0,0,1,346.7,543c13.3-.06,26.6-.19,39.9,0,10.74.17,16.54,6.86,15.3,18.84-1.21,11.64-.39,23.24-.72,34.85C400.92,605.84,396,611,387.1,611Z" transform="translate(-91.9 -120.65)"/><path class="cls-6" d="M495,705c1.95,2.85,2.22,5-1.8,6.44-3,1.05-3.53,4.58-5.39,6.84-8.12,9.88-16.3,19.62-22.45,31.12C460.61,758.3,453.5,766,447.18,774c-2.23,2.83-6.53,2.67-8.1-.28-2.49-4.68-6.82-7.36-10.48-10.74-2.58-2.39-3.22-5-2-8.06,3.12-7.68,6.86-15,12.86-20.93,3.49-3.44,3.73-8.19,4.79-12.45s7-12.34,11.44-13.71c1.55-.48,2.41-1.7,3.54-2.64,4.6-3.85,8.86-8,15.87-4.53,2.41,1.19,5.89.21,8.89.22,3.32-1.06,5.54,2.42,8.68,2.13l2,.16C494.81,703.79,494.91,704.39,495,705Z" transform="translate(-91.9 -120.65)"/><path class="cls-9" d="M551.1,557.1c-.11,1.6-.23,3.2-.34,4.8h.13c-1.33.52-.95,1.7-1,2.69-3.75,4.84-5.31,10.94-5.53,16.45-.44,11.13-2.75,22.08-2.55,33.21a5.43,5.43,0,0,0-.2,5.35c0,.92,0,1.85,0,2.76-.43,4.65-1.62,9.16,1.69,13.62,2.81,3.79.6,8-4.11,9-1.07.24-1.92.43-2,1.7-.21,2.19-2,3.94-1.68,6.27-.59,1.55.06,4-2.74,4s-4.52-1.72-6.09-3.61c-2.57-3.08-1.28-7.07-2.23-10.55q.78-3.48,1.54-7c4.08-2,7.46-9.82,5.48-14.49-.77-1.8-.37-3.69-1.4-5.27q0-8.94.1-17.89a3,3,0,0,0,1.4-2.93c0-5.75,0-11.5,0-17.26a220.7,220.7,0,0,1,2.5-26.78c4.34.37,8.37,2.27,12.82,2.46C548.1,553.73,550.77,554.63,551.1,557.1Z" transform="translate(-91.9 -120.65)"/><path class="cls-4" d="M275,728.14l-4.57,0c.53-9.44,3.51-18.09,7.69-26.56,6.84-13.85,18.12-22.68,32.26-26.94,6.84-2.06,14.82-1.7,22.4.54a48.79,48.79,0,0,1,15.6,7.25c10,7.29,15.81,17.29,21,28.11,2.37,5,1,10.48,3.63,15.23.65,1.19-.71,2-2,2.28l-3.37,1c-1.71-17.82-9.31-32.41-24.74-41.85-13.11-8-27.25-8.08-40.77-1.09-13.82,7.16-21.69,19.27-25.12,34.36C276.4,723.06,275.63,725.59,275,728.14Z" transform="translate(-91.9 -120.65)"/><path class="cls-1" d="M388.08,519.07a26,26,0,0,1-.68-9.81l78.45-.07c.08,3.66.91,7.38-.7,10.93a86.88,86.88,0,0,0-21.58-2.24c-15.9.16-31.8.08-47.71,0A21.56,21.56,0,0,0,388.08,519.07Z" transform="translate(-91.9 -120.65)"/><path class="cls-11" d="M224.3,675.94v15.44c0,3.64-1.78,5.5-5.45,5.5s-5.45-1.87-5.46-5.5q0-15.45,0-30.88c0-3.62,1.78-5.51,5.46-5.51s5.45,1.89,5.46,5.51C224.31,665.65,224.29,670.79,224.3,675.94Z" transform="translate(-91.9 -120.65)"/><path class="cls-6" d="M425.37,638.73c-3.16,0-6.33,0-9.49,0s-4.11-2.33-4.18-4.55a3.87,3.87,0,0,1,4.17-4c6.33-.05,12.65,0,19,0,3.2,0,3.16,2.32,3.2,4.54s-.36,4-3.18,4C431.69,638.68,428.53,638.72,425.37,638.73Z" transform="translate(-91.9 -120.65)"/><path class="cls-5" d="M492.69,703c-3.14.29-5.36-3.19-8.68-2.13,0-.6,0-1.2,0-1.81,3.53.42,5.5-1.15,7.41-4.26,8.34-13.6,17.06-27,25.68-40.41a42.53,42.53,0,0,1,3.41-4c.92,3.25-.47,5-1.65,6.84C509.92,671.12,501.09,685,492,698.68,490.49,700.91,493.22,701.5,492.69,703Z" transform="translate(-91.9 -120.65)"/><path class="cls-11" d="M379.15,665.58c0-4.11,2.92-8.31,6-8.51s7,4.23,7,8.17-3.38,8.61-6.45,8.64C382,673.93,379.17,670.37,379.15,665.58Z" transform="translate(-91.9 -120.65)"/><path class="cls-5" d="M510.92,703c3.49-5.76,6.56-11.83,10.56-17.21,6.47-8.72,10.81-18.86,18.17-27,1.5.49,3.76-.72,4.34,1.91-2.47-1-3.61.72-4.69,2.4-3.87,6.06-7.71,12.15-11.55,18.22-4.56,7.21-9.72,14-13.67,21.61Z" transform="translate(-91.9 -120.65)"/><path class="cls-4" d="M510.92,703l3.16,0,47.43-.08.3,1.87c-15.75,0-31.5-.08-47.24.22-6.53.12-13,1.67-19.57,0-.09-.59-.19-1.19-.28-1.78Z" transform="translate(-91.9 -120.65)"/><path class="cls-7" d="M544,660.7c-.58-2.63-2.84-1.42-4.34-1.91-.66-2.47-2.85-3.84-4.19-5.81-.33-2.33,1.47-4.08,1.68-6.26,4.31,2.09,7.33,5.7,10.5,9.09a3.47,3.47,0,0,1,.4,4.55C546.83,662.14,545.47,662.17,544,660.7Z" transform="translate(-91.9 -120.65)"/><path class="cls-5" d="M525.94,635.84q-.77,3.48-1.54,7c-2.71-1.23-4.24-3.18-3-6.18C522.32,634.2,524.23,635.11,525.94,635.84Z" transform="translate(-91.9 -120.65)"/><path class="cls-1" d="M321.11,525.66c.85-1.8,1.82-3.27,4.08-1.73A4,4,0,0,1,321.11,525.66Z" transform="translate(-91.9 -120.65)"/><path class="cls-1" d="M330.1,523.64a1.7,1.7,0,0,1,2.27-1.49C332.11,523.4,331.43,524,330.1,523.64Z" transform="translate(-91.9 -120.65)"/><path class="cls-14" d="M653.75,365c0-.62,0-1.25,0-1.87.9-7.8-3.46-15.17-1.85-23l0,0c3,.15,5.08-1.06,5.82-4.14h0c2.9.24,4.2-1.56,5-4,5-5.17,11.64-8.24,17-13a1.78,1.78,0,0,0,2-1.85l1.76-.28c2.23-.52,3.19,1.94,5.11,2.17-.08,7,3.31,13.51,2.38,20.57-.38,1.37.06,2.23,1.53,2.44L694,354.7c-2.2,3.76-6.46,3-9.74,4.14-7.67,2.6-15.92,3.1-23.63,5.83C658.56,365.41,656.05,364.92,653.75,365Z" transform="translate(-91.9 -120.65)"/><path class="cls-12" d="M694,354.7q-.71-6.31-1.42-12.64a2,2,0,0,0-1.53-2.44c.93-7.06-2.46-13.61-2.38-20.57.64-1.47-1.15-4.2,1.64-4.39a5.13,5.13,0,0,1,5.23,3c1.5,3.06.51,6.29,1.32,9.29,1.94,7.21,2.78,14.57,3.59,21.95C701,353.93,698.68,356.06,694,354.7Z" transform="translate(-91.9 -120.65)"/><path class="cls-1" d="M612.76,370.92c4.12-6.39,11.16-9.43,16.48-14.45a9.09,9.09,0,0,1,.86-.49c5.86-4.27,6-4.32,7.55,2.78.64,3,3,2.12,4.59,2.79,3.67,1.55,7.22,3.7,11.46,3.37-2.8,4.21-6.84,2.48-9.86,1.18s-7-2-8.82-6.28c-.67-1.62-4.32-1.4-6.73,1-3.54,3.48-7.77,6.28-11.75,9.31A4.87,4.87,0,0,1,612.76,370.92Z" transform="translate(-91.9 -120.65)"/><path class="cls-1" d="M215.2,421.13a4.58,4.58,0,0,1,4.12,4C217.12,424.65,215.11,424,215.2,421.13Z" transform="translate(-91.9 -120.65)"/><path class="cls-14" d="M716,628c2.48-2,3.21-5.1,3.4-7.66.41-5.42,3.76-9,6.31-13.21l.15-.09c3.15.35,4.82-1.35,5.71-4.13,1.12-2,3.06-3,5.06-4,1.41.09,2.05-.59,2-2h0c1.42,0,2-.66,2-2h0c2.84.29,4-1.69,5.12-3.76a10.23,10.23,0,0,1,4.69-4.89c.13,2.26.24,4.06.34,5.85,0,4.38-.08,8.75,0,13.13,0,1.51-.4,3.37,1.66,4.14-.47,7.32-3.71,13.88-5.83,20.72-5.42,17.5-11.37,34.85-17.16,52.24-1.18,3.54-2.59,7-3.89,10.52-1.44-1.34-.91-3.1-.92-4.69,0-11.28.09-22.55-.12-33.82-.14-7.65-1.89-14.75-8.76-19.49-1.66-1.15-3-2.63-3-4.86C714.21,629.89,715.45,629.47,716,628Z" transform="translate(-91.9 -120.65)"/><path class="cls-16" d="M750.77,592.1c-.1-1.79-.21-3.59-.34-5.85a10.23,10.23,0,0,0-4.69,4.89c-1.12,2.07-2.28,4.05-5.12,3.76a241.65,241.65,0,0,1,17.87-26.59c.45-.57,1-1.88,2.28-1.3-3.08,8-7.8,15.47-8.82,24.26C751.92,591.59,751.18,591.83,750.77,592.1Z" transform="translate(-91.9 -120.65)"/><path class="cls-5" d="M676.78,665.92c3.09-7.92,5.45-16.19,10.48-23.24l1.38,2.25c-2.92,7.84-5.8,15.69-9.9,23Z" transform="translate(-91.9 -120.65)"/><path class="cls-7" d="M693.58,625.82l2.55.21-5.6,14.85-2.16-1c.21-5,3.91-9,4.38-14Z" transform="translate(-91.9 -120.65)"/><path class="cls-7" d="M676.78,665.92l2,2-.45,1.87a1.77,1.77,0,0,0-1.39,2.23q-1.27,3.94-2.54,7.89c-1.5.15-2.73-.08-2.78-2Q674.18,671.94,676.78,665.92Z" transform="translate(-91.9 -120.65)"/><path class="cls-6" d="M576,750.07c0-4.38-.08-8.77,0-13.15,0-1.52-.6-3.41,1.7-4,0,4.78-.08,9.56-.08,14.33A2.77,2.77,0,0,1,576,750.07Z" transform="translate(-91.9 -120.65)"/><path class="cls-5" d="M688.37,639.88l2.16,1a2,2,0,0,1-1.54,2.28c-.23-.93-.39-1.9-1.37-2.4Z" transform="translate(-91.9 -120.65)"/><path class="cls-7" d="M687.62,640.76c1,.5,1.14,1.47,1.37,2.4-.12.59-.24,1.18-.35,1.77l-1.38-2.25Z" transform="translate(-91.9 -120.65)"/><path class="cls-2" d="M712.76,630c0,2.23,1.34,3.71,3,4.86,6.87,4.74,8.62,11.84,8.76,19.49.21,11.27.07,22.54.12,33.82,0,1.59-.52,3.35.92,4.69-1.66,7.77-1.95,8-9.51,8-4.46,0-8.92,0-13.39.06-3.75-.29-1.65-5.16-4.68-6-2.8-3.19-8-3.9-9.14-8.81,4.95-11.49,10.15-22.88,14.75-34.51,2.82-7.13,7-13.78,8.18-21.52Zm-3,36.59c0,2.66,0,5.31,0,8,0,1.28-.26,2.94,1.52,3.2s3.61.75,5.17-.73c4.86-4.62,4.83-16.17,0-20.74a4.64,4.64,0,0,0-4.59-1.13c-2.11.5-2.09,2.28-2.1,4C709.77,661.61,709.78,664.1,709.78,666.58Z" transform="translate(-91.9 -120.65)"/><path class="cls-4" d="M698,694.93c3,.85.93,5.72,4.68,6-4,2.82-2.84,7.18-3.31,11.07-1.54,0-1.31-1.73-2.17-2.33a14.52,14.52,0,0,0-4.29,14.1c1,4.25-.76,4.51-3.92,4.08-.18-1-.37-1.92-.55-2.88,1.13-5.83,3.77-11.12,6.38-16.35C697,704.25,698.62,699.89,698,694.93Z" transform="translate(-91.9 -120.65)"/><path class="cls-11" d="M321.61,768.08c-10.68,0-19.67-6.43-24.34-17.55-5.48-13-2.93-28.93,5.86-38.09,11.06-11.51,26.12-11.48,36.64-.13,13.88,15,12.14,39.44-4.78,51.91C330.89,767.24,326.44,768.08,321.61,768.08Z" transform="translate(-91.9 -120.65)"/><path class="cls-11" d="M621.66,757.25c-12.36-15.51-8.52-41.49,10.71-51.33,3.64-1.85,8-3.17,12.48-2.46.76,1.46,2.37,2.31,1.19,4.69C638.21,724,630.65,739.9,623,755.78A6.69,6.69,0,0,1,621.66,757.25Z" transform="translate(-91.9 -120.65)"/><path class="cls-2" d="M688.64,644.93c.11-.59.23-1.18.35-1.77a2,2,0,0,0,1.54-2.28l5.6-14.85,1.41-.2c3,1.8,6.11,2.78,9.59,1.68l-.21.2c-.21,1.55.68,2.12,2,2.29q-11.61,27.51-23.21,55c-4.25-.67-7.68-3.17-11.37-5.1q1.26-3.95,2.54-7.89c1.19-.29,1.86-.91,1.39-2.23l.45-1.87C682.84,660.62,685.72,652.77,688.64,644.93Z" transform="translate(-91.9 -120.65)"/><path class="cls-5" d="M685.73,685q11.6-27.52,23.21-55a4.41,4.41,0,0,1,.95-.17l1.88.26c-1.21,7.74-5.36,14.39-8.18,21.52-4.6,11.63-9.8,23-14.75,34.51C687.71,686,686.44,686.34,685.73,685Z" transform="translate(-91.9 -120.65)"/><path class="cls-2" d="M524.66,752.91l-16.5.07c1-10,2.09-20.06,1.81-30.15-.11-3.64,1-4.91,4.79-4.83,11.91.24,23.84.13,35.76.15-1.25,4.63-5.14,7.48-7.63,11.28-4.75,7.25-11.36,13.18-15.08,21.17Z" transform="translate(-91.9 -120.65)"/><path class="cls-3" d="M496.27,765.53c-1.21,8.27-4.6,15.2-11.78,20-1.71,1.13-3.56,1.78-5,.63-1.63-1.32-.13-3,.75-4.34,3.37-5,4.44-11.4,8.88-15.84,1.4-.75,2.79-1.52,4.19-2.25C495.33,762.68,496,763.82,496.27,765.53Z" transform="translate(-91.9 -120.65)"/><path class="cls-1" d="M496.27,765.53c-.29-1.71-.94-2.85-2.92-1.82-1.4.73-2.79,1.5-4.19,2.25a57.37,57.37,0,0,1,6.37-12.9c1.19-.47,2.87-2.26,2.59,1.05a16.66,16.66,0,0,0,.24,2.89C497.26,759.75,499.08,763.21,496.27,765.53Z" transform="translate(-91.9 -120.65)"/><path class="cls-4" d="M498.36,757a16.66,16.66,0,0,1-.24-2.89c.28-3.31-1.4-1.52-2.59-1.05-.17-3.06,2.27-5,3.53-7.56C499.63,749.41,501.16,753.3,498.36,757Z" transform="translate(-91.9 -120.65)"/><path class="cls-2" d="M544,660.7c1.48,1.47,2.84,1.44,4-.34a3.47,3.47,0,0,0-.4-4.55c-3.17-3.39-6.19-7-10.5-9.09.06-1.28.91-1.47,2-1.71,4.71-1,6.92-5.25,4.11-9-3.31-4.46-2.12-9-1.69-13.62A126.21,126.21,0,0,0,552.82,651c-.36,5.24,2,10,2.58,15.11,1,9,4.19,17.66,4.61,26.78.32,2.09-1.37,4.68,1.52,6.14.1,1.3.21,2.6.32,3.9l-.34,0-47.43.08c3.95-7.59,9.11-14.4,13.67-21.61,3.84-6.07,7.68-12.16,11.55-18.22C540.38,661.42,541.52,659.71,544,660.7Z" transform="translate(-91.9 -120.65)"/><path class="cls-7" d="M560,692.86c-.42-9.12-3.64-17.77-4.61-26.78-.55-5.11-2.94-9.87-2.58-15.11,3,.18,3.41,3.75,3.4,4.71-.07,6.13,4.46,11.15,3.74,17.32-.23,2-.35,3.23,2.91,3.49,5.33.42,11,15.47,6.94,18.67-3,2.38-5.85,4.58-8,7.74-.11-1.3-.22-2.6-.32-3.9C561.37,696.87,563.08,694.27,560,692.86Z" transform="translate(-91.9 -120.65)"/><path class="cls-2" d="M541.56,619.59a5.43,5.43,0,0,1,.2-5.35.71.71,0,0,1,.79.39Z" transform="translate(-91.9 -120.65)"/><path class="cls-9" d="M731.59,602.88c-.89,2.78-2.56,4.48-5.71,4.13C726.85,604.34,728.55,602.67,731.59,602.88Z" transform="translate(-91.9 -120.65)"/><path class="cls-16" d="M738.67,597c0,1.38-.61,2.06-2,2C736.69,597.61,737.27,596.86,738.67,597Z" transform="translate(-91.9 -120.65)"/><path class="cls-16" d="M740.62,594.9c.09,1.38-.53,2.09-2,2C738.76,595.72,739.23,594.87,740.62,594.9Z" transform="translate(-91.9 -120.65)"/><path class="cls-13" d="M805.63,457.13c-2,0-3,2.55-5.24,2.19-10.93,4.21-22,7.78-33.91,7.84-1.81,0-3.62.16-5.43.25-1.1-1.47-2.86-1.66-4.41-2.1-4.18-1.18-5.49-4.59-3.14-8.31,3-4.77,8.07-5.87,13-7.3.52,6.3,10.7,11.7,16.72,8.53a11.72,11.72,0,0,1,5.63-1.22c7.14-.13,11.62-4.8,11.91-11.75.12-2.85-1.22-5-2-7.4h4.71l11.26,0c5.85,3.67,6.23,5.75,1.88,10.69a29,29,0,0,1-8.71,6.27C806.77,455.42,805.74,455.74,805.63,457.13Z" transform="translate(-91.9 -120.65)"/><path class="cls-4" d="M746.73,265.12c-2-3.31-4.87-3-7.44-1.18-2.07,1.43-2.82.59-3.69-1.05,2.48-2.6,6-2.42,9.12-3.42,3.26-1.07,6.83-1.15,10-2.7.9-.44,2-.76,2.59.36a1.82,1.82,0,0,1-.36,1.74C753.7,261.18,751.3,265,746.73,265.12Z" transform="translate(-91.9 -120.65)"/><path class="cls-4" d="M736.72,273.26a13.51,13.51,0,0,1,10-8.19c-.43,1.8-1,3.46-3.06,4a1.78,1.78,0,0,0-2.05,1.92c-1.54-.08-2,1.34-2.93,2.1Z" transform="translate(-91.9 -120.65)"/><path class="cls-11" d="M736.72,273.26l2-.15a1.83,1.83,0,0,1-2,1.93Z" transform="translate(-91.9 -120.65)"/><path class="cls-11" d="M741.65,271a1.78,1.78,0,0,1,2.05-1.92A1.78,1.78,0,0,1,741.65,271Z" transform="translate(-91.9 -120.65)"/><path class="cls-1" d="M651.85,340.1c-1.61,7.85,2.75,15.22,1.85,23-3.43-3.4-1.7-8.32-3.61-12.26-1-2.09-.23-4.87-.8-7.34A2.57,2.57,0,0,1,651.85,340.1Z" transform="translate(-91.9 -120.65)"/><path class="cls-1" d="M657.71,335.94c-.74,3.08-2.8,4.29-5.82,4.14C652.7,337.12,654.76,335.9,657.71,335.94Z" transform="translate(-91.9 -120.65)"/><path class="cls-1" d="M662.75,332c-.83,2.4-2.13,4.2-5,4C658.61,333.62,660.48,332.54,662.75,332Z" transform="translate(-91.9 -120.65)"/><path class="cls-3" d="M681.8,317.16a1.78,1.78,0,0,1-2,1.85C679.82,317.71,680.45,317,681.8,317.16Z" transform="translate(-91.9 -120.65)"/><path class="cls-10" d="M458.89,430c6.93-.09,7.19.15,7.21,7.21q0,14.85,0,29.71c-3.3-.18-3.13,2.08-3.12,4.34q0,14.49,0,29c0,2.27.61,4.83-3.2,4.77-3.27-.06-5.81-.89-5.7-4.6.27-9.13-1-18.29.74-27.37.72-3.71-.77-5.18-4.53-5.11-7.82.14-15.64,0-23.46.05-2,0-4,.07-5.8-1,.11-2,.61-4,.27-5.86-1.76-9.68-.68-19.41-.73-29.11C433.19,428,446.14,430.84,458.89,430Z" transform="translate(-91.9 -120.65)"/><path class="cls-6" d="M394.51,429.65a13.32,13.32,0,0,1-1.46-6.7c0-9.46,0-18.93-.32-28.39-.07-2.18.68-2.71,2.37-2.72q20.91-.06,41.83,0c2.38,0,3.12,1.18,2.8,3.52-1.3,9.58-.73,19.22-.32,28.82.13,3.06-.66,3.93-3.34,3.93s-5.66.17-8.46,0a10.16,10.16,0,0,0-7.34,2c-1.94,1.31-1.13,3.33-1.14,5-.09,10.65-.07,21.29-.08,31.94l-2-.08c0-10.57,0-21.14,0-31.72,0-1.92.48-4.08-1.91-5.14-4-2.66-8.11-3.3-12.32-.42Z" transform="translate(-91.9 -120.65)"/><path class="cls-10" d="M475.33,434.92c2.08-6.48,7.47-4.76,12.13-5,2.49-.11,3.58.84,3.56,3.44q-.12,14.13,0,28.28c0,2.7-1.27,4.87-3.65,5.08s-3.34,2-5.29,2.28c-1.41-1.58-3.15-1.2-4.78-.63-1.45.5-2.07,0-2.25-1.35Q475.19,451,475.33,434.92Z" transform="translate(-91.9 -120.65)"/><path class="cls-6" d="M475.33,434.92q-.15,16.06-.29,32.14l-7.07-.33c0-10.6,0-21.19.09-31.77,0-2.14-1.33-4.95,3-5.28C475.72,429.33,475.12,432.21,475.33,434.92Z" transform="translate(-91.9 -120.65)"/><path class="cls-7" d="M415.15,430.09c2.39,1.06,1.9,3.22,1.91,5.14,0,10.58,0,21.15,0,31.72-2.81.07-2.06-2.11-2.07-3.54C415,452.3,415.1,441.19,415.15,430.09Z" transform="translate(-91.9 -120.65)"/><path class="cls-7" d="M419.05,467c0-10.65,0-21.29.08-31.94,0-1.7-.8-3.72,1.14-5,.11.65.23,1.3.34,2,.05,9.7-1,19.43.73,29.11.34,1.87-.16,3.9-.27,5.86Z" transform="translate(-91.9 -120.65)"/><path class="cls-6" d="M549.84,564.58c.1-1-.28-2.17,1-2.69C550.68,562.85,551.05,564,549.84,564.58Z" transform="translate(-91.9 -120.65)"/><path class="cls-15" d="M551.1,557.1c-.33-2.47-3-3.37-4.23-3.42-4.45-.19-8.48-2.09-12.82-2.46-2.08-3.06-1.19-6.48-.78-9.64,1-8.16,2.23-16.33,4-24.35.9-4.09,3.36-7.81,4.15-12.05,1.94,0,2.16-1.68,2.92-2.93,2.74-4.52,8.54-7.31,13.59-6.27s7.57,4.48,9.25,9.34c3,8.6-.26,16.43-2.72,24.11-2.59,8.12-5.41,16.31-10,23.66C553.58,554.59,553.17,556.57,551.1,557.1Z" transform="translate(-91.9 -120.65)"/><path class="cls-6" d="M531.55,578c0,5.76,0,11.51,0,17.26a3,3,0,0,1-1.4,2.93c0-5.66-.1-11.32-.13-17C530,579.91,529.74,578.44,531.55,578Z" transform="translate(-91.9 -120.65)"/><path class="cls-6" d="M448.82,391.86c8.33.46,8.28.46,8.34,9,.06,8.74.22,17.48.34,26.22-2.69,2-5.74.79-8.62.87-1.78,0-1.91-1.48-1.91-2.88q0-15.39,0-30.79C446.93,392.9,447.4,392,448.82,391.86Z" transform="translate(-91.9 -120.65)"/><path class="cls-9" d="M603.18,566.14c-2.21,2.59-5,3.12-8.32,2.89s-5.38-1.28-5.05-5a12.8,12.8,0,0,0-.28-3.43c-1-5.19,1.12-7.39,5.88-5.25a18.25,18.25,0,0,0,8,1.71c2.65,0,3.1,2,3.52,4C605.78,562.79,604.92,564.78,603.18,566.14Z" transform="translate(-91.9 -120.65)"/><path class="cls-9" d="M630.81,561a33.05,33.05,0,0,1,1,3.83c.85,6.58-1.93,9.13-9.82,9.12a8.08,8.08,0,0,1-2-5.93c.11-5.4,1.61-6.94,6.91-6.89C628.17,561.16,629.49,561.06,630.81,561Z" transform="translate(-91.9 -120.65)"/><path class="cls-10" d="M798.71,437.86c.79,2.43,2.13,4.55,2,7.4-.29,6.95-4.77,11.62-11.91,11.75a11.72,11.72,0,0,0-5.63,1.22c-6,3.17-16.2-2.23-16.72-8.53.71-4.73,1.23-9.49,2.19-14.17,1.12-5.48,4.51-9.31,10-10.43,5.82-1.19,10.88,1.34,14.54,5.58C795.13,432.9,796.75,435.55,798.71,437.86Z" transform="translate(-91.9 -120.65)"/><path class="cls-10" d="M814.68,437.9l-11.26,0C806.43,435.21,811.81,435.23,814.68,437.9Z" transform="translate(-91.9 -120.65)"/><path class="cls-7" d="M711.77,630.09l-1.88-.26c-.1-2-1.37-2.28-3-2.12l.21-.2c.58-2.08,1.18-4,4-3.9s4.27,1.76,4.87,4.36c-.57,1.5-1.81,1.92-3.26,2Z" transform="translate(-91.9 -120.65)"/><path class="cls-12" d="M575.72,278.31c-.17,2.16.75,4.5-1.83,6.21-3.88,2.57-7.74,1.46-8.69-3a79.24,79.24,0,0,1-1.11-8.85,4.68,4.68,0,0,1,3.95-5.43c2.67-.63,4.77,0,5.91,3C575,272.81,576.22,275.33,575.72,278.31Z" transform="translate(-91.9 -120.65)"/><path class="cls-12" d="M713.68,244.66c-.62,2.3,1.58,5.86-2.69,7.25-4.48,1.47-7.12-.29-8-5.8-.38-2.44,0-5-.29-7.44-.36-3.66,2.39-4.39,4.84-5.21,2.72-.91,3.69,1.16,4.8,3.13C713.78,239.07,713.51,241.71,713.68,244.66Z" transform="translate(-91.9 -120.65)"/><path class="cls-12" d="M773.75,232.36c.14,3.89-2.87,4.7-5.45,5.44-3.12.89-4.63-1.54-5.28-4a61.56,61.56,0,0,1-1.26-8.83c-.48-3.95,2.41-5.12,5.31-5.76,3.36-.73,4.1,1.81,4.63,4.44C772.28,226.6,773.06,229.47,773.75,232.36Z" transform="translate(-91.9 -120.65)"/><path class="cls-12" d="M694.55,251.08c-.27,3-1.14,5.38-4.75,5.83s-5.12-1.68-5.85-4.64c-.56-2.24-.51-4.66-1.21-6.84-1.46-4.52,1.11-6.21,4.71-6.91s5.2,1.5,5.21,4.84C692.68,246.11,694.87,248.26,694.55,251.08Z" transform="translate(-91.9 -120.65)"/><path class="cls-12" d="M623.65,259.75c.21-1.62-.06-3.53.72-4.78a5.78,5.78,0,0,1,5.44-2.77c2.39.15,2.7,2,3.37,3.67,1.09,2.8,1.33,5.75,1.87,8.65.71,3.83-1.54,5.51-4.56,6.31-3.38.89-5.2-.73-5.73-4.23A55.25,55.25,0,0,1,623.65,259.75Z" transform="translate(-91.9 -120.65)"/><path class="cls-12" d="M614.87,269.43c.83,3.37-.6,6.45-5.36,6.19-4.3-.23-5.39-3.74-5.49-7.5a50.66,50.66,0,0,1,0-7c.33-2.93,3.07-3.57,5.18-3.74,3.15-.25,4.52,2.53,5.27,5.07C615,264.33,614.74,266.43,614.87,269.43Z" transform="translate(-91.9 -120.65)"/><path class="cls-12" d="M589.5,262.21a6.54,6.54,0,0,1,1,0c2.14.36,5.66,9.84,5.21,13.85-.43,3.85-3.61,4.09-6.26,4.4-3,.37-3.72-2.45-4.23-4.61-.61-2.53-.53-5.1-1.76-7.63S585.8,262.19,589.5,262.21Z" transform="translate(-91.9 -120.65)"/><path class="cls-12" d="M555.87,284.13c-1.25,2,.16,5.69-4.32,5.91-3.87.19-5.56-1.35-5.6-5,0-1.73-.92-3.09-1.47-4.62a6.59,6.59,0,0,1,6.33-9.06,4,4,0,0,1,3.85,3.81C555.05,278.08,554.8,281.09,555.87,284.13Z" transform="translate(-91.9 -120.65)"/><path class="cls-12" d="M674.6,254.54c.33,3.74-.52,6.28-4.87,6.51s-5.87-2-5.88-6c0-1.45-.65-2.9-.78-4.37-.25-2.63-.73-5.77,2.76-6.45,3.08-.61,6.63-1.38,7.45,3.73C673.63,250.17,674.83,252.29,674.6,254.54Z" transform="translate(-91.9 -120.65)"/><path class="cls-12" d="M722.62,236.27c-.11-3.53,0-6.8,4.72-7.14,2.36-.17,4.15,0,4.44,3.09.25,2.74,1.56,5.27,2,8.09.71,4.66-2.18,6.5-5.41,7.16-4,.81-4.4-3-5.09-5.82A39.92,39.92,0,0,1,722.62,236.27Z" transform="translate(-91.9 -120.65)"/><path class="cls-12" d="M653.89,257.56c0,1.33-.06,2.67,0,4a4.56,4.56,0,0,1-4.2,5.16c-3,.43-4.77-1.55-4.77-4.39s-2.22-5.08-2-8.09c.22-3.7,1.32-6,5.38-6.15,3.83-.11,5.33,2,5.45,5.5,0,1.33,0,2.66,0,4Z" transform="translate(-91.9 -120.65)"/><path class="cls-12" d="M752.68,232.54c.25,9.4-.36,10.24-5.89,9.52a4.7,4.7,0,0,1-2.27-.74c-1.23-1-2.86-12.79-2.16-14.28,1.31-2.82,3.88-2,6.06-2,2.35-.08,3.63,1.5,4,3.59A21.7,21.7,0,0,1,752.68,232.54Z" transform="translate(-91.9 -120.65)"/><path class="cls-1" d="M824.63,204.1c-.75,3.14-3.24,1.63-5.07,1.9C820.31,202.84,822.82,204.4,824.63,204.1Z" transform="translate(-91.9 -120.65)"/><path class="cls-1" d="M814.79,206.25c-.36,1.86-1.73,1.91-3.2,1.78C811.78,205.84,813.25,206,814.79,206.25Z" transform="translate(-91.9 -120.65)"/><path class="cls-1" d="M805.9,208.37a2,2,0,0,1-2.31,1.64C803.71,208.54,804.46,208,805.9,208.37Z" transform="translate(-91.9 -120.65)"/><path class="cls-3" d="M691.05,339.62a2,2,0,0,1,1.53,2.44C691.11,341.85,690.67,341,691.05,339.62Z" transform="translate(-91.9 -120.65)"/><path class="cls-5" d="M678.29,669.82c.47,1.32-.2,1.94-1.39,2.23A1.77,1.77,0,0,1,678.29,669.82Z" transform="translate(-91.9 -120.65)"/><path class="cls-11" d="M709.78,666.58c0-2.48,0-5,0-7.46,0-1.69,0-3.47,2.1-4a4.64,4.64,0,0,1,4.59,1.13c4.84,4.57,4.87,16.12,0,20.74-1.56,1.48-3.44,1-5.17.73s-1.51-1.92-1.52-3.2C709.75,671.89,709.78,669.24,709.78,666.58Z" transform="translate(-91.9 -120.65)"/><path class="cls-9" d="M706.92,627.71c1.6-.16,2.87.16,3,2.12a4.41,4.41,0,0,0-.95.17C707.6,629.83,706.71,629.26,706.92,627.71Z" transform="translate(-91.9 -120.65)"/><path class="cls-4" d="M560,692.86c3.07,1.41,1.36,4,1.52,6.14C558.64,697.54,560.33,695,560,692.86Z" transform="translate(-91.9 -120.65)"/></svg>